<?xml version="1.0" encoding="UTF-8"?>
<svg xmlns="http://www.w3.org/2000/svg" xmlns:xlink="http://www.w3.org/1999/xlink" width="472pt" height="548pt" viewBox="0 0 472 548" version="1.1">
<defs>
<clipPath id="clip1">
  <path d="M 32.082031 0 L 439.921875 0 L 439.921875 548 L 32.082031 548 Z M 32.082031 0 "/>
</clipPath>
<clipPath id="clip2">
  <path d="M 40.300781 5.480469 L 434.441406 5.480469 L 434.441406 539.78125 L 40.300781 539.78125 Z M 40.300781 5.480469 "/>
</clipPath>
<clipPath id="clip3">
  <path d="M 62 5.480469 L 64 5.480469 L 64 539.78125 L 62 539.78125 Z M 62 5.480469 "/>
</clipPath>
<clipPath id="clip4">
  <path d="M 140 5.480469 L 142 5.480469 L 142 539.78125 L 140 539.78125 Z M 140 5.480469 "/>
</clipPath>
<clipPath id="clip5">
  <path d="M 219 5.480469 L 221 5.480469 L 221 539.78125 L 219 539.78125 Z M 219 5.480469 "/>
</clipPath>
<clipPath id="clip6">
  <path d="M 297 5.480469 L 299 5.480469 L 299 539.78125 L 297 539.78125 Z M 297 5.480469 "/>
</clipPath>
<clipPath id="clip7">
  <path d="M 375 5.480469 L 377 5.480469 L 377 539.78125 L 375 539.78125 Z M 375 5.480469 "/>
</clipPath>
<clipPath id="clip8">
  <path d="M 40.300781 469 L 434.441406 469 L 434.441406 471 L 40.300781 471 Z M 40.300781 469 "/>
</clipPath>
<clipPath id="clip9">
  <path d="M 40.300781 344 L 434.441406 344 L 434.441406 346 L 40.300781 346 Z M 40.300781 344 "/>
</clipPath>
<clipPath id="clip10">
  <path d="M 40.300781 219 L 434.441406 219 L 434.441406 221 L 40.300781 221 Z M 40.300781 219 "/>
</clipPath>
<clipPath id="clip11">
  <path d="M 40.300781 95 L 434.441406 95 L 434.441406 97 L 40.300781 97 Z M 40.300781 95 "/>
</clipPath>
</defs>
<g id="surface1">
<rect x="0" y="0" width="472" height="548" style="fill:rgb(100%,100%,100%);fill-opacity:1;stroke:none;"/>
<g clip-path="url(#clip1)" clip-rule="nonzero">
<path style="fill-rule:nonzero;fill:rgb(100%,100%,100%);fill-opacity:1;stroke-width:1.066978;stroke-linecap:round;stroke-linejoin:round;stroke:rgb(100%,100%,100%);stroke-opacity:1;stroke-miterlimit:10;" d="M 32.082031 548 L 439.921875 548 L 439.921875 0 L 32.082031 0 Z M 32.082031 548 "/>
</g>
<g clip-path="url(#clip2)" clip-rule="nonzero">
<path style=" stroke:none;fill-rule:nonzero;fill:rgb(0%,0%,0%);fill-opacity:1;" d="M 40.300781 539.78125 L 434.441406 539.78125 L 434.441406 5.480469 L 40.300781 5.480469 Z M 40.300781 539.78125 "/>
</g>
<g clip-path="url(#clip3)" clip-rule="nonzero">
<path style="fill:none;stroke-width:1.066978;stroke-linecap:round;stroke-linejoin:round;stroke:rgb(0%,0%,0%);stroke-opacity:1;stroke-miterlimit:10;" d="M 63.023438 539.78125 L 63.023438 5.480469 "/>
</g>
<g clip-path="url(#clip4)" clip-rule="nonzero">
<path style="fill:none;stroke-width:1.066978;stroke-linecap:round;stroke-linejoin:round;stroke:rgb(0%,0%,0%);stroke-opacity:1;stroke-miterlimit:10;" d="M 141.289063 539.78125 L 141.289063 5.480469 "/>
</g>
<g clip-path="url(#clip5)" clip-rule="nonzero">
<path style="fill:none;stroke-width:1.066978;stroke-linecap:round;stroke-linejoin:round;stroke:rgb(0%,0%,0%);stroke-opacity:1;stroke-miterlimit:10;" d="M 219.550781 539.78125 L 219.550781 5.480469 "/>
</g>
<g clip-path="url(#clip6)" clip-rule="nonzero">
<path style="fill:none;stroke-width:1.066978;stroke-linecap:round;stroke-linejoin:round;stroke:rgb(0%,0%,0%);stroke-opacity:1;stroke-miterlimit:10;" d="M 297.816406 539.78125 L 297.816406 5.480469 "/>
</g>
<g clip-path="url(#clip7)" clip-rule="nonzero">
<path style="fill:none;stroke-width:1.066978;stroke-linecap:round;stroke-linejoin:round;stroke:rgb(0%,0%,0%);stroke-opacity:1;stroke-miterlimit:10;" d="M 376.078125 539.78125 L 376.078125 5.480469 "/>
</g>
<g clip-path="url(#clip8)" clip-rule="nonzero">
<path style="fill:none;stroke-width:1.066978;stroke-linecap:round;stroke-linejoin:round;stroke:rgb(0%,0%,0%);stroke-opacity:1;stroke-miterlimit:10;" d="M 40.300781 469.949219 L 434.441406 469.949219 "/>
</g>
<g clip-path="url(#clip9)" clip-rule="nonzero">
<path style="fill:none;stroke-width:1.066978;stroke-linecap:round;stroke-linejoin:round;stroke:rgb(0%,0%,0%);stroke-opacity:1;stroke-miterlimit:10;" d="M 40.300781 345.152344 L 434.441406 345.152344 "/>
</g>
<g clip-path="url(#clip10)" clip-rule="nonzero">
<path style="fill:none;stroke-width:1.066978;stroke-linecap:round;stroke-linejoin:round;stroke:rgb(0%,0%,0%);stroke-opacity:1;stroke-miterlimit:10;" d="M 40.300781 220.351563 L 434.441406 220.351563 "/>
</g>
<g clip-path="url(#clip11)" clip-rule="nonzero">
<path style="fill:none;stroke-width:1.066978;stroke-linecap:round;stroke-linejoin:round;stroke:rgb(0%,0%,0%);stroke-opacity:1;stroke-miterlimit:10;" d="M 40.300781 95.550781 L 434.441406 95.550781 "/>
</g>
<path style="fill-rule:evenodd;fill:rgb(0%,0%,0%);fill-opacity:1;stroke-width:0.426791;stroke-linecap:butt;stroke-linejoin:round;stroke:rgb(34.901961%,34.901961%,34.901961%);stroke-opacity:1;stroke-miterlimit:10;" d="M 194.8125 44.121094 L 191.054688 45.007813 L 189.167969 42.433594 L 184.847656 41.039063 L 166.171875 38.664063 L 166.90625 45.101563 L 174.609375 57.453125 L 174.375 64.824219 L 177.734375 66.644531 L 175.414063 69.550781 L 168.566406 71.554688 L 166.449219 75.5 L 168.351563 77.503906 L 174.347656 78.933594 L 172.964844 83.960938 L 174.5625 87.316406 L 177.644531 88.082031 L 179.164063 92.28125 L 173.871094 94.058594 L 178.992188 101.84375 L 188.238281 103.035156 L 191.09375 103.808594 L 199.433594 113.792969 L 202.441406 119.710938 L 208.992188 123.160156 L 210.269531 120.039063 L 214.175781 120.046875 L 217.414063 117.210938 L 222.347656 114.457031 L 225.511719 113.535156 L 226.972656 119.871094 L 226.050781 123.5625 L 228.8125 126.980469 L 231.601563 130.921875 L 237.914063 133.875 L 242.835938 135.242188 L 244.570313 129.988281 L 250.320313 126.621094 L 252.21875 122.5625 L 254.808594 122.089844 L 256.804688 117.539063 L 255.765625 114.976563 L 249.691406 111.191406 L 249.410156 107.335938 L 249.414063 104.164063 L 254.914063 98.246094 L 252.457031 96.058594 L 249.484375 93.824219 L 250.074219 90.765625 L 260.324219 84.648438 L 262.054688 82.726563 L 262.167969 73.496094 L 264.832031 70.359375 L 270.453125 69.890625 L 268.3125 65.945313 L 267.433594 64.324219 L 261.140625 62.664063 L 259.675781 65.945313 L 259.21875 66.964844 L 262.007813 68.625 L 261.925781 71.492188 L 255.75 71.996094 L 247.484375 76.515625 L 233.144531 68.609375 L 228.683594 69.964844 L 226.367188 73.976563 L 226.148438 68.542969 L 223.441406 66.195313 L 217.121094 65.546875 L 220.773438 55.832031 L 217.578125 46.960938 L 216.238281 46.308594 L 214.175781 48.53125 L 203.238281 42.246094 L 199.671875 44.21875 L 197.742188 45.339844 L 196.96875 44.183594 L 196.863281 43.636719 Z M 194.8125 44.121094 "/>
<path style="fill-rule:evenodd;fill:rgb(0%,0%,0%);fill-opacity:1;stroke-width:0.426791;stroke-linecap:butt;stroke-linejoin:round;stroke:rgb(34.901961%,34.901961%,34.901961%);stroke-opacity:1;stroke-miterlimit:10;" d="M 256.78125 100.292969 L 254.976563 99.996094 L 254.132813 101.789063 L 254.640625 102.539063 L 256.867188 101.890625 Z M 256.78125 100.292969 "/>
<path style="fill-rule:evenodd;fill:rgb(0%,0%,0%);fill-opacity:1;stroke-width:0.426791;stroke-linecap:butt;stroke-linejoin:round;stroke:rgb(34.901961%,34.901961%,34.901961%);stroke-opacity:1;stroke-miterlimit:10;" d="M 168.558594 63.355469 L 169.109375 61.015625 L 168.203125 60.789063 L 164.699219 62.210938 L 164.246094 62.917969 L 165.707031 65.039063 L 167.554688 64.675781 Z M 168.558594 63.355469 "/>
<path style="fill-rule:evenodd;fill:rgb(0%,0%,0%);fill-opacity:1;stroke-width:0.426791;stroke-linecap:butt;stroke-linejoin:round;stroke:rgb(34.901961%,34.901961%,34.901961%);stroke-opacity:1;stroke-miterlimit:10;" d="M 164.636719 50.703125 L 164.308594 49.300781 L 162.222656 48.394531 L 158.378906 48.855469 L 156.746094 50.933594 L 157.03125 51.847656 L 160.3125 53.109375 L 163.496094 53.082031 Z M 164.636719 50.703125 "/>
<path style="fill-rule:evenodd;fill:rgb(0%,0%,0%);fill-opacity:1;stroke-width:0.426791;stroke-linecap:butt;stroke-linejoin:round;stroke:rgb(34.901961%,34.901961%,34.901961%);stroke-opacity:1;stroke-miterlimit:10;" d="M 163.460938 58.347656 L 161.5 59.867188 L 162.519531 61.832031 L 163.871094 61.546875 Z M 163.460938 58.347656 "/>
<path style="fill-rule:evenodd;fill:rgb(0%,0%,0%);fill-opacity:1;stroke-width:0.426791;stroke-linecap:butt;stroke-linejoin:round;stroke:rgb(34.901961%,34.901961%,34.901961%);stroke-opacity:1;stroke-miterlimit:10;" d="M 155.492188 38.828125 L 155.40625 35.722656 L 154.480469 34.835938 L 152.902344 38.695313 L 152.5 41.898438 L 152.925781 42.507813 L 154.574219 40.710938 L 157.582031 42.707031 L 159.457031 41.683594 L 159.128906 40.835938 L 156.191406 39.878906 Z M 155.492188 38.828125 "/>
<path style="fill-rule:evenodd;fill:rgb(0%,0%,0%);fill-opacity:1;stroke-width:0.426791;stroke-linecap:butt;stroke-linejoin:round;stroke:rgb(34.901961%,34.901961%,34.901961%);stroke-opacity:1;stroke-miterlimit:10;" d="M 158.453125 30.285156 L 156.863281 29.765625 L 155.25 33.359375 L 155.632813 33.914063 L 158.554688 32.085938 Z M 158.453125 30.285156 "/>
<path style="fill-rule:evenodd;fill:rgb(0%,0%,0%);fill-opacity:1;stroke-width:0.426791;stroke-linecap:butt;stroke-linejoin:round;stroke:rgb(34.901961%,34.901961%,34.901961%);stroke-opacity:1;stroke-miterlimit:10;" d="M 155.5 54.953125 L 154.582031 52.109375 L 152.613281 53.910156 L 155.644531 57.734375 L 157.113281 57.199219 Z M 155.5 54.953125 "/>
<path style="fill-rule:evenodd;fill:rgb(0%,0%,0%);fill-opacity:1;stroke-width:0.426791;stroke-linecap:butt;stroke-linejoin:round;stroke:rgb(34.901961%,34.901961%,34.901961%);stroke-opacity:1;stroke-miterlimit:10;" d="M 152.046875 45.757813 L 151.566406 48.054688 L 152.730469 49.667969 L 153.820313 46.53125 Z M 152.046875 45.757813 "/>
<path style="fill-rule:evenodd;fill:rgb(93.333333%,0%,0%);fill-opacity:1;stroke-width:0.426791;stroke-linecap:butt;stroke-linejoin:round;stroke:rgb(34.901961%,34.901961%,34.901961%);stroke-opacity:1;stroke-miterlimit:10;" d="M 254.621094 247.128906 L 255.398438 244.289063 L 247 242.679688 L 246.054688 242.917969 L 244.703125 247.367188 L 238.671875 246.886719 L 234.742188 246.578125 L 230.738281 251.96875 L 216.75 259.332031 L 217.789063 263.761719 L 227.648438 270.855469 L 227.769531 273.761719 L 225.289063 274.253906 L 225.648438 279.03125 L 227.464844 282 L 226.6875 282.84375 L 220.394531 283.191406 L 219.15625 287.535156 L 220.222656 290.488281 L 216.664063 297.265625 L 215.636719 304.597656 L 217.347656 305.441406 L 220.214844 303.449219 L 222.585938 305.363281 L 221.355469 307.152344 L 221.171875 312.921875 L 223.652344 310.488281 L 227.507813 310.949219 L 232.410156 314.664063 L 235.195313 319.953125 L 237.183594 320.074219 L 242.667969 324.613281 L 243.425781 330.925781 L 248.085938 330.796875 L 251.355469 328.636719 L 248.371094 325.171875 L 248.519531 322.730469 L 256.558594 321.035156 L 260.144531 323.214844 L 263.40625 322.796875 L 266.117188 328.226563 L 268.488281 327.046875 L 269.515625 321.984375 L 269.089844 315.234375 L 274.382813 312.855469 L 275.546875 317.632813 L 277.527344 318.21875 L 279.242188 321.191406 L 282.292969 320.265625 L 291.4375 320.351563 L 294.660156 318.648438 L 294.175781 317.230469 L 295.710938 314.171875 L 293.246094 311.652344 L 295.628906 308.253906 L 298.226563 307.402344 L 300 310.472656 L 310.296875 302.933594 L 307.148438 298.792969 L 308.585938 296.5 L 307.632813 294.085938 L 323.363281 287.511719 L 321.972656 283.949219 L 319.417969 282.699219 L 316.242188 277.933594 L 308.910156 277.015625 L 308.855469 281.578125 L 306.589844 286.3125 L 304.214844 285.335938 L 298.636719 284.679688 L 293.363281 279.632813 L 289.03125 279.707031 L 285.957031 277.292969 L 277.648438 276.171875 L 276.90625 271.128906 L 273.625 269.332031 L 273.765625 267.40625 L 277.230469 264.339844 L 274.5625 261.398438 L 273.691406 259.011719 L 270.945313 257.5 L 257.828125 256.113281 Z M 254.621094 247.128906 "/>
<path style="fill-rule:evenodd;fill:rgb(0%,0%,0%);fill-opacity:1;stroke-width:0.426791;stroke-linecap:butt;stroke-linejoin:round;stroke:rgb(34.901961%,34.901961%,34.901961%);stroke-opacity:1;stroke-miterlimit:10;" d="M 349 82.941406 L 348.070313 80.804688 L 345.386719 80.210938 L 343.042969 79.140625 L 341.476563 78.488281 L 340.84375 77.183594 L 342.15625 76.339844 L 336.355469 69.320313 L 331.796875 69.0625 L 329.003906 72.28125 L 319.601563 67.203125 L 317.210938 69.53125 L 317.519531 73.085938 L 316.179688 75.789063 L 314.128906 77.160156 L 311.785156 75.722656 L 308.988281 78.394531 L 305.683594 80.285156 L 302.867188 83.964844 L 297.78125 84.648438 L 285.550781 86.492188 L 280.667969 93.800781 L 273.875 95.824219 L 274.292969 97.367188 L 277.316406 98.214844 L 276.082031 100.902344 L 271.871094 98.691406 L 269.152344 99.40625 L 264.855469 94.691406 L 254.914063 98.246094 L 249.414063 104.164063 L 249.410156 107.335938 L 249.691406 111.191406 L 255.765625 114.976563 L 256.804688 117.539063 L 254.808594 122.089844 L 252.21875 122.5625 L 250.320313 126.621094 L 244.570313 129.988281 L 242.835938 135.242188 L 246.90625 135.316406 L 251.882813 138.238281 L 257.34375 137.335938 L 265.410156 148.175781 L 269.082031 150.339844 L 278.664063 149.78125 L 282.515625 143.753906 L 290.859375 143.382813 L 298.40625 138.457031 L 300.128906 135.804688 L 310.539063 137.902344 L 310.796875 138.109375 L 315.734375 141.929688 L 323.425781 142.785156 L 336.347656 147.65625 L 342.386719 142.648438 L 346.394531 143.449219 L 348.394531 141.144531 L 352.640625 141.707031 L 356.519531 138.457031 L 358.917969 133.246094 L 364.734375 128.058594 L 368.0625 127.789063 L 368.226563 124.273438 L 373.371094 131.277344 L 385.21875 131.957031 L 384.78125 135.167969 L 382.601563 138.457031 L 381.769531 141.136719 L 384.824219 141.664063 L 390.621094 138.457031 L 392.207031 137.382813 L 386.550781 114.410156 L 384.792969 111.519531 L 378.339844 110.714844 L 373.6875 106.753906 L 377.871094 103.882813 L 384.417969 103.882813 L 384.933594 100.003906 L 377.394531 93.78125 L 376.953125 97.136719 L 373.070313 97.015625 L 372.984375 101.105469 L 372.046875 101.933594 L 368.464844 94.964844 L 371.996094 93.714844 L 372.597656 91.320313 L 368.792969 85.15625 L 355.425781 89.019531 L 349.445313 83.476563 Z M 254.640625 102.539063 L 254.132813 101.789063 L 254.976563 99.996094 L 256.78125 100.292969 L 256.867188 101.890625 Z M 254.640625 102.539063 "/>
<path style="fill-rule:evenodd;fill:rgb(0%,0%,0%);fill-opacity:1;stroke-width:0.426791;stroke-linecap:butt;stroke-linejoin:round;stroke:rgb(34.901961%,34.901961%,34.901961%);stroke-opacity:1;stroke-miterlimit:10;" d="M 352.625 58.636719 L 351.90625 55.1875 L 348.492188 54.878906 L 343.492188 64.230469 L 344.203125 70.949219 L 342.410156 75.675781 L 344.234375 76.589844 L 345.089844 78.667969 L 347.398438 79.675781 L 349.222656 80.566406 L 350.316406 80.5625 L 356.144531 75.363281 L 364.367188 74.703125 L 360.726563 67.640625 L 361.863281 61.222656 L 356.566406 61.039063 L 357.367188 65.863281 L 356.21875 67.097656 L 351.449219 60.90625 Z M 352.625 58.636719 "/>
<path style="fill-rule:evenodd;fill:rgb(0%,0%,0%);fill-opacity:1;stroke-width:0.426791;stroke-linecap:butt;stroke-linejoin:round;stroke:rgb(34.901961%,34.901961%,34.901961%);stroke-opacity:1;stroke-miterlimit:10;" d="M 340.535156 59.757813 L 339.792969 62.515625 L 342.019531 62.546875 L 341.578125 59.226563 Z M 340.535156 59.757813 "/>
<path style="fill-rule:evenodd;fill:rgb(0%,0%,0%);fill-opacity:1;stroke-width:0.426791;stroke-linecap:butt;stroke-linejoin:round;stroke:rgb(34.901961%,34.901961%,34.901961%);stroke-opacity:1;stroke-miterlimit:10;" d="M 280.90625 88.761719 L 278.929688 90.882813 L 279.796875 92.386719 L 281.753906 90.527344 Z M 280.90625 88.761719 "/>
<path style="fill-rule:evenodd;fill:rgb(0%,0%,0%);fill-opacity:1;stroke-width:0.426791;stroke-linecap:butt;stroke-linejoin:round;stroke:rgb(34.901961%,34.901961%,34.901961%);stroke-opacity:1;stroke-miterlimit:10;" d="M 172.304688 105.789063 L 168.179688 102.296875 L 165.03125 103.417969 L 162.933594 106.746094 L 160.3125 115.003906 L 161.652344 120.125 L 166.203125 120.628906 L 166.546875 125.421875 L 165.132813 127.363281 L 160.566406 128.472656 L 163.003906 125.183594 L 152.898438 119.984375 L 150.554688 124.398438 L 153.007813 125.75 L 153.269531 129.636719 L 151.398438 132.644531 L 148.941406 132.421875 L 144.746094 129.457031 L 143.6875 126.378906 L 147.632813 124.644531 L 146.867188 120.835938 L 144.859375 118.132813 L 143.195313 117.53125 L 141.503906 113.746094 L 133.851563 113.792969 L 123.6875 115.828125 L 113.617188 115.628906 L 108.613281 118.625 L 106.09375 122.027344 L 106.957031 124.65625 L 103.839844 125.246094 L 102.136719 135.496094 L 112.5 137.640625 L 110.332031 142.785156 L 110.09375 150.882813 L 110.027344 158.855469 L 105.785156 168.046875 L 105 169.703125 L 104.246094 179.34375 L 102.402344 180.492188 L 90.796875 181.175781 L 91.582031 184.523438 L 90.332031 190.007813 L 99.1875 192.792969 L 101.996094 191.996094 L 104.625 197.074219 L 103.503906 202.164063 L 104.726563 205.289063 L 106.035156 205.183594 L 114.582031 202.863281 L 124.261719 196.65625 L 125.949219 190.773438 L 128.632813 192 L 131.347656 195.953125 L 138.15625 197.289063 L 139.90625 200.082031 L 139.585938 203.347656 L 137.847656 207.597656 L 141.097656 209.921875 L 141.363281 212.617188 L 136.792969 215.152344 L 139.855469 217.789063 L 145.0625 216.785156 L 151.675781 212.449219 L 157.355469 213.167969 L 160.40625 209.351563 L 158.953125 206.582031 L 159.53125 203.652344 L 158.394531 197.996094 L 154.226563 195.191406 L 152.917969 191.867188 L 157.515625 192.433594 L 160.539063 188.828125 L 166.332031 187.59375 L 168.796875 189.125 L 169.003906 193.925781 L 170.4375 195.761719 L 178.125 194.886719 L 183.144531 189.320313 L 184.773438 190.527344 L 185.320313 194.644531 L 180.171875 200.910156 L 179.769531 203.617188 L 182.410156 206.558594 L 181.859375 208.441406 L 180.171875 208.484375 L 181.25 211.371094 L 185.4375 212.109375 L 186.507813 214.246094 L 188.101563 222.019531 L 190.351563 222.246094 L 192.507813 225.171875 L 193.566406 227.269531 L 193.074219 229.394531 L 197.367188 230.503906 L 195.453125 241.355469 L 196.75 242.363281 L 197.65625 242.167969 L 204.484375 243.390625 L 207.238281 246.433594 L 206.730469 247.28125 L 205.582031 246.441406 L 205.0625 246.425781 L 205.015625 247.296875 L 205.769531 248.273438 L 204.1875 250.742188 L 205.167969 256.484375 L 202.226563 260.824219 L 202.648438 261.535156 L 209.078125 264.328125 L 210.371094 262.722656 L 208.765625 260.183594 L 211.714844 257.75 L 215.566406 256.96875 L 216.75 259.332031 L 230.738281 251.96875 L 234.742188 246.578125 L 238.671875 246.886719 L 244.703125 247.367188 L 246.054688 242.917969 L 247 242.679688 L 242.652344 233.746094 L 242.425781 230.386719 L 244.5625 226.550781 L 241.515625 220.097656 L 245.9375 217.539063 L 250.917969 217.355469 L 257.292969 216.816406 L 257.296875 214.035156 L 260.683594 210.628906 L 259.613281 208.148438 L 261.3125 205.75 L 259.15625 199.472656 L 261.171875 197.367188 L 256.121094 190.910156 L 259.027344 189.355469 L 256.832031 185.699219 L 257.285156 181.800781 L 255.195313 181.246094 L 249.265625 170.691406 L 252.484375 167.175781 L 256.195313 166.855469 L 260.359375 163.621094 L 270.402344 165.550781 L 278.445313 161.632813 L 278.632813 158.386719 L 282.078125 155.710938 L 276.355469 153.414063 L 271.839844 154.089844 L 269.082031 150.339844 L 265.410156 148.175781 L 257.34375 137.335938 L 251.882813 138.238281 L 246.90625 135.316406 L 242.835938 135.242188 L 237.914063 133.875 L 231.601563 130.921875 L 227.554688 133.195313 L 221.863281 129.539063 L 218.933594 131.578125 L 214.175781 130.519531 L 210.507813 126.421875 L 210.40625 123.832031 L 208.992188 123.160156 L 202.441406 119.710938 L 199.433594 113.792969 L 191.09375 103.808594 L 181.144531 105.859375 Z M 165.375 147.769531 L 160.28125 143.78125 L 179.800781 150.085938 L 178.839844 150.980469 L 179.195313 155.152344 L 177.125 157.265625 L 169.128906 155.167969 L 166.917969 151.160156 Z M 165.375 147.769531 "/>
<path style="fill-rule:evenodd;fill:rgb(0%,0%,0%);fill-opacity:1;stroke-width:0.426791;stroke-linecap:butt;stroke-linejoin:round;stroke:rgb(34.901961%,34.901961%,34.901961%);stroke-opacity:1;stroke-miterlimit:10;" d="M 129.875 108.742188 L 129.421875 109.703125 L 132.296875 111.050781 L 132.796875 108.847656 Z M 129.875 108.742188 "/>
<path style="fill-rule:evenodd;fill:rgb(0%,0%,0%);fill-opacity:1;stroke-width:0.426791;stroke-linecap:butt;stroke-linejoin:round;stroke:rgb(34.901961%,34.901961%,34.901961%);stroke-opacity:1;stroke-miterlimit:10;" d="M 128.644531 108.980469 L 127.621094 110.570313 L 128.917969 111.726563 L 129.878906 110.195313 Z M 128.644531 108.980469 "/>
<path style="fill-rule:evenodd;fill:rgb(0%,0%,0%);fill-opacity:1;stroke-width:0.426791;stroke-linecap:butt;stroke-linejoin:round;stroke:rgb(34.901961%,34.901961%,34.901961%);stroke-opacity:1;stroke-miterlimit:10;" d="M 122.457031 110.300781 L 120.8125 110.398438 L 119.667969 113.15625 L 121.667969 113.054688 Z M 122.457031 110.300781 "/>
<path style="fill-rule:evenodd;fill:rgb(0%,0%,0%);fill-opacity:1;stroke-width:0.426791;stroke-linecap:butt;stroke-linejoin:round;stroke:rgb(34.901961%,34.901961%,34.901961%);stroke-opacity:1;stroke-miterlimit:10;" d="M 113.570313 112.734375 L 109.546875 112.8125 L 108.808594 113.460938 L 109.03125 114.21875 L 113.496094 113.878906 Z M 113.570313 112.734375 "/>
<path style="fill-rule:evenodd;fill:rgb(0%,0%,0%);fill-opacity:1;stroke-width:0.426791;stroke-linecap:butt;stroke-linejoin:round;stroke:rgb(34.901961%,34.901961%,34.901961%);stroke-opacity:1;stroke-miterlimit:10;" d="M 106.011719 115.625 L 106.128906 115.105469 L 102.113281 115.34375 L 96.9375 116.078125 L 96.898438 116.46875 Z M 106.011719 115.625 "/>
<path style="fill-rule:evenodd;fill:rgb(0%,0%,0%);fill-opacity:1;stroke-width:0.426791;stroke-linecap:butt;stroke-linejoin:round;stroke:rgb(34.901961%,34.901961%,34.901961%);stroke-opacity:1;stroke-miterlimit:10;" d="M 96.871094 118.003906 L 97.339844 118.730469 L 97.90625 118.921875 L 98.476563 117.757813 L 98.273438 117.152344 L 96.929688 117.699219 Z M 96.871094 118.003906 "/>
<path style="fill-rule:evenodd;fill:rgb(0%,0%,0%);fill-opacity:1;stroke-width:0.426791;stroke-linecap:butt;stroke-linejoin:round;stroke:rgb(34.901961%,34.901961%,34.901961%);stroke-opacity:1;stroke-miterlimit:10;" d="M 92.710938 119.410156 L 88.65625 120.765625 L 89.054688 121.878906 L 90.996094 123.023438 L 93.691406 119.972656 Z M 92.710938 119.410156 "/>
<path style="fill-rule:evenodd;fill:rgb(93.333333%,0%,0%);fill-opacity:1;stroke-width:0.426791;stroke-linecap:butt;stroke-linejoin:round;stroke:rgb(34.901961%,34.901961%,34.901961%);stroke-opacity:1;stroke-miterlimit:10;" d="M 166.332031 187.59375 L 160.539063 188.828125 L 157.515625 192.433594 L 152.917969 191.867188 L 154.226563 195.191406 L 158.394531 197.996094 L 159.53125 203.652344 L 158.953125 206.582031 L 160.40625 209.351563 L 157.355469 213.167969 L 151.675781 212.449219 L 145.0625 216.785156 L 139.855469 217.789063 L 136.792969 215.152344 L 141.363281 212.617188 L 141.097656 209.921875 L 137.847656 207.597656 L 139.585938 203.347656 L 139.90625 200.082031 L 138.15625 197.289063 L 131.347656 195.953125 L 128.632813 192 L 125.949219 190.773438 L 124.261719 196.65625 L 114.582031 202.863281 L 106.035156 205.183594 L 104.726563 205.289063 L 101.832031 206.484375 L 96.621094 212.445313 L 92.785156 212.953125 L 90.234375 217.179688 L 95.09375 220.945313 L 93.140625 225.261719 L 79.414063 229.007813 L 78.980469 231.078125 L 69.589844 226.542969 L 69.019531 229.960938 L 65.425781 229.164063 L 61.683594 231.003906 L 62.230469 234.648438 L 61.191406 236.085938 L 67.042969 241.800781 L 67.167969 245.265625 L 71.015625 250.382813 L 71.804688 259.976563 L 65.867188 267.613281 L 66.519531 271.582031 L 69.867188 271.238281 L 61.589844 279.75 L 59.113281 279.070313 L 58.214844 280.746094 L 59.496094 283.597656 L 63.382813 283.878906 L 64.226563 286.84375 L 66.425781 288.171875 L 65.839844 291.585938 L 63.425781 295.007813 L 63.847656 298.082031 L 67.664063 300.695313 L 70.21875 305.3125 L 73.046875 306.332031 L 70.433594 309.828125 L 70.546875 312.636719 L 75.375 314.136719 L 77.417969 317.371094 L 76.90625 321.496094 L 78.875 324.976563 L 79.667969 324.996094 L 79.902344 322.78125 L 85.808594 321.691406 L 90.503906 323.453125 L 94.359375 322.574219 L 93.175781 315.648438 L 97.554688 316.152344 L 99.335938 310.292969 L 108.011719 307.195313 L 109.796875 305.046875 L 110.410156 304.621094 L 110.46875 306.25 L 115.285156 304.984375 L 117.089844 300.773438 L 119.40625 300.757813 L 127.96875 296.53125 L 128.023438 293.960938 L 131.65625 291.53125 L 132.910156 286.5 L 135.476563 287.378906 L 135.0625 289.871094 L 139.921875 292.894531 L 140.246094 296.269531 L 142.839844 301.632813 L 146.210938 302.355469 L 147.433594 299.574219 L 147.332031 294.902344 L 151.433594 290.792969 L 155.199219 291.363281 L 159.988281 284.683594 L 161.941406 281.75 L 161.453125 277.742188 L 162.777344 276.394531 L 167.609375 276.34375 L 170.746094 270.964844 L 169.449219 266.253906 L 164.386719 266.683594 L 163.480469 265.394531 L 164.113281 263.898438 L 168.648438 259.519531 L 177.730469 258.023438 L 178.078125 256.121094 L 176.628906 252.839844 L 179.273438 251.128906 L 183.121094 251.792969 L 184.308594 254.535156 L 186.503906 255.128906 L 192.160156 250.421875 L 194.1875 244.542969 L 197.65625 242.167969 L 196.75 242.363281 L 195.453125 241.355469 L 197.367188 230.503906 L 193.074219 229.394531 L 193.566406 227.269531 L 192.507813 225.171875 L 190.351563 222.246094 L 188.101563 222.019531 L 186.507813 214.246094 L 185.4375 212.109375 L 181.25 211.371094 L 180.171875 208.484375 L 181.859375 208.441406 L 182.410156 206.558594 L 179.769531 203.617188 L 180.171875 200.910156 L 185.320313 194.644531 L 184.773438 190.527344 L 183.144531 189.320313 L 178.125 194.886719 L 170.4375 195.761719 L 169.003906 193.925781 L 168.796875 189.125 Z M 166.332031 187.59375 "/>
<path style="fill-rule:evenodd;fill:rgb(93.333333%,0%,0%);fill-opacity:1;stroke-width:0.426791;stroke-linecap:butt;stroke-linejoin:round;stroke:rgb(34.901961%,34.901961%,34.901961%);stroke-opacity:1;stroke-miterlimit:10;" d="M 142.839844 301.632813 L 140.246094 296.269531 L 139.921875 292.894531 L 135.0625 289.871094 L 135.476563 287.378906 L 132.910156 286.5 L 131.65625 291.53125 L 128.023438 293.960938 L 127.96875 296.53125 L 119.40625 300.757813 L 117.089844 300.773438 L 115.285156 304.984375 L 110.46875 306.25 L 110.410156 304.621094 L 109.796875 305.046875 L 108.011719 307.195313 L 99.335938 310.292969 L 97.554688 316.152344 L 93.175781 315.648438 L 94.359375 322.574219 L 90.503906 323.453125 L 85.808594 321.691406 L 79.902344 322.78125 L 79.667969 324.996094 L 78.875 324.976563 L 75.34375 325.617188 L 70.589844 330.144531 L 68.410156 337.042969 L 68.03125 342.195313 L 72.9375 351.957031 L 75.808594 354.824219 L 81.609375 356.304688 L 83.023438 358.703125 L 82.628906 362.703125 L 79.960938 366.242188 L 77.898438 373.160156 L 86.203125 374.601563 L 97.910156 369.273438 L 103.25 367.648438 L 112.484375 371.714844 L 112.980469 373.316406 L 113.441406 378.1875 L 112.042969 380.625 L 113.605469 382.078125 L 117.648438 384.335938 L 117.890625 384.605469 L 117.59375 387.808594 L 113.988281 392.488281 L 114.691406 395.726563 L 116.585938 397.476563 L 120.96875 397.351563 L 122.875 401.320313 L 127.03125 404.183594 L 137.792969 404.730469 L 143.964844 407.59375 L 150.390625 409.636719 L 151.511719 408.742188 L 152.140625 408.179688 L 154.59375 402.546875 L 157.453125 391.960938 L 159.5625 389.890625 L 160.355469 389.453125 L 159.714844 386.289063 L 160.75 381.882813 L 160.914063 380.414063 L 159.777344 379.875 L 157.84375 373.742188 L 157.828125 371.722656 L 157.820313 371.148438 L 157.519531 370.417969 L 155.507813 364.773438 L 158.757813 361.949219 L 158.835938 361.769531 L 159.175781 360.367188 L 156.945313 357.402344 L 154.710938 348.863281 L 152.570313 345.453125 L 150.84375 343.570313 L 148.726563 342.949219 L 148.140625 343.011719 L 137.695313 346.714844 L 132.9375 342.195313 L 132.445313 341 L 138.082031 337.242188 L 137.164063 333.917969 L 137.859375 332.644531 L 142.375 331.269531 L 142.769531 328.890625 L 146.058594 327.851563 L 143.421875 321.917969 L 140.175781 319.800781 L 141.261719 312.527344 L 142.921875 310.835938 L 145.882813 311.265625 L 147.21875 307.75 L 146.210938 302.355469 Z M 142.839844 301.632813 "/>
<path style="fill-rule:evenodd;fill:rgb(93.333333%,0%,0%);fill-opacity:1;stroke-width:0.426791;stroke-linecap:butt;stroke-linejoin:round;stroke:rgb(34.901961%,34.901961%,34.901961%);stroke-opacity:1;stroke-miterlimit:10;" d="M 112.484375 371.714844 L 103.25 367.648438 L 97.910156 369.273438 L 86.203125 374.601563 L 77.898438 373.160156 L 77.390625 378.253906 L 80.617188 378.304688 L 84.820313 381.390625 L 85.941406 386.867188 L 91.335938 393.894531 L 91.703125 396.746094 L 94.988281 397.730469 L 96.628906 394.394531 L 103.09375 395.703125 L 104.179688 399.691406 L 106.113281 397.816406 L 109.6875 400.179688 L 113.695313 399.992188 L 116.585938 397.476563 L 114.691406 395.726563 L 113.988281 392.488281 L 117.59375 387.808594 L 117.890625 384.605469 L 117.648438 384.335938 L 113.605469 382.078125 L 112.042969 380.625 L 113.441406 378.1875 L 112.980469 373.316406 Z M 112.484375 371.714844 "/>
<path style="fill-rule:evenodd;fill:rgb(93.333333%,0%,0%);fill-opacity:1;stroke-width:0.426791;stroke-linecap:butt;stroke-linejoin:round;stroke:rgb(34.901961%,34.901961%,34.901961%);stroke-opacity:1;stroke-miterlimit:10;" d="M 333.824219 242.554688 L 330.628906 240.570313 L 320.523438 243.683594 L 305.601563 249.597656 L 303.996094 254.585938 L 305.390625 262 L 304.019531 263.132813 L 304.503906 265.558594 L 305.945313 274.570313 L 308.910156 277.015625 L 316.242188 277.933594 L 319.417969 282.699219 L 321.972656 283.949219 L 323.363281 287.511719 L 307.632813 294.085938 L 308.585938 296.5 L 307.148438 298.792969 L 310.296875 302.933594 L 300 310.472656 L 298.226563 307.402344 L 295.628906 308.253906 L 293.246094 311.652344 L 295.710938 314.171875 L 294.175781 317.230469 L 294.660156 318.648438 L 298.652344 323.964844 L 301.765625 325.304688 L 304.84375 325.53125 L 310.347656 334.171875 L 311.082031 329.835938 L 313.835938 325.078125 L 320.660156 319.75 L 325.328125 319.808594 L 329.957031 316.875 L 334.917969 319.921875 L 338.652344 313.652344 L 344.089844 313.542969 L 346.84375 308.699219 L 348.96875 308.839844 L 352.101563 305.53125 L 354.679688 307.214844 L 356.585938 305.613281 L 358.125 301.121094 L 362.46875 299.578125 L 370.328125 299.503906 L 375.382813 294.507813 L 390.789063 288.980469 L 391.269531 287.417969 L 386.628906 283.179688 L 388.519531 279.335938 L 392.324219 281.1875 L 395.300781 280.035156 L 399.132813 283.511719 L 398.558594 287.492188 L 401.050781 287.582031 L 400.292969 291.625 L 406.15625 293.761719 L 408.300781 290.828125 L 411.261719 285.898438 L 415.042969 274.941406 L 416.523438 265.941406 L 414.203125 260.039063 L 413.34375 253.894531 L 405.070313 249.664063 L 404.640625 246.449219 L 401.90625 248.265625 L 398.136719 246.949219 L 393.601563 248.925781 L 388.929688 250.332031 L 382.472656 248.992188 L 380.304688 250.667969 L 376.148438 258.757813 L 369.636719 259.238281 L 363.996094 259.414063 L 358.359375 259.128906 L 352.921875 255.121094 L 347.304688 258.230469 L 345.171875 257.496094 L 344.5 248.917969 L 342.441406 245.074219 L 338.945313 242.335938 Z M 333.824219 242.554688 "/>
<path style="fill-rule:evenodd;fill:rgb(0%,0%,0%);fill-opacity:1;stroke-width:0.426791;stroke-linecap:butt;stroke-linejoin:round;stroke:rgb(34.901961%,34.901961%,34.901961%);stroke-opacity:1;stroke-miterlimit:10;" d="M 292.695313 164.015625 L 290.9375 161.082031 L 282.078125 155.710938 L 278.632813 158.386719 L 278.445313 161.632813 L 270.402344 165.550781 L 260.359375 163.621094 L 256.195313 166.855469 L 252.484375 167.175781 L 249.265625 170.691406 L 255.195313 181.246094 L 257.285156 181.800781 L 256.832031 185.699219 L 259.027344 189.355469 L 256.121094 190.910156 L 261.171875 197.367188 L 259.15625 199.472656 L 261.3125 205.75 L 259.613281 208.148438 L 260.683594 210.628906 L 257.296875 214.035156 L 257.292969 216.816406 L 250.917969 217.355469 L 245.9375 217.539063 L 241.515625 220.097656 L 244.5625 226.550781 L 242.425781 230.386719 L 242.652344 233.746094 L 247 242.679688 L 255.398438 244.289063 L 254.621094 247.128906 L 257.828125 256.113281 L 270.945313 257.5 L 273.691406 259.011719 L 274.5625 261.398438 L 277.230469 264.339844 L 273.765625 267.40625 L 273.625 269.332031 L 276.90625 271.128906 L 277.648438 276.171875 L 285.957031 277.292969 L 289.03125 279.707031 L 293.363281 279.632813 L 298.636719 284.679688 L 304.214844 285.335938 L 306.589844 286.3125 L 308.855469 281.578125 L 308.910156 277.015625 L 305.945313 274.570313 L 304.503906 265.558594 L 304.019531 263.132813 L 305.390625 262 L 303.996094 254.585938 L 305.601563 249.597656 L 320.523438 243.683594 L 330.628906 240.570313 L 333.824219 242.554688 L 338.945313 242.335938 L 343.382813 238.691406 L 342.851563 229.113281 L 327.9375 221.644531 L 323.804688 219.921875 L 319.476563 221.261719 L 312.535156 217.535156 L 308.644531 213.859375 L 306.785156 209.859375 L 310.226563 192.015625 L 307.964844 188.707031 L 304.53125 188.757813 L 304.703125 182.054688 L 306.976563 179.9375 L 306.203125 172.585938 L 307.566406 170.941406 L 307.648438 169.703125 L 306.410156 166.585938 L 303.296875 166.472656 L 302.777344 164.804688 Z M 292.695313 164.015625 "/>
<path style="fill-rule:evenodd;fill:rgb(93.333333%,67.843137%,5.490196%);fill-opacity:1;stroke-width:0.426791;stroke-linecap:butt;stroke-linejoin:round;stroke:rgb(34.901961%,34.901961%,34.901961%);stroke-opacity:1;stroke-miterlimit:10;" d="M 198.871094 358.894531 L 193.136719 360.085938 L 194.121094 362.902344 L 196.234375 362.960938 L 196.5 366.148438 L 192 367.304688 L 189.191406 371.347656 L 184.453125 371.515625 L 185.207031 375.195313 L 183.679688 374.738281 L 177.753906 378.183594 L 175.855469 381.625 L 173.339844 382.316406 L 174.105469 378.179688 L 176.480469 377.3125 L 176.492188 376.121094 L 169.621094 374.449219 L 166.917969 369.003906 L 164.945313 369.6875 L 165.238281 373.289063 L 164.039063 375.117188 L 157.820313 371.148438 L 157.828125 371.722656 L 157.84375 373.742188 L 159.777344 379.875 L 160.914063 380.414063 L 160.75 381.882813 L 159.714844 386.289063 L 160.355469 389.453125 L 159.5625 389.890625 L 157.453125 391.960938 L 154.59375 402.546875 L 152.140625 408.179688 L 151.511719 408.742188 L 150.390625 409.636719 L 147.898438 412.128906 L 144.796875 419.46875 L 139.707031 425.109375 L 139.085938 425.90625 L 133.953125 432.574219 L 130.964844 448.996094 L 128.792969 453.894531 L 124.773438 462.375 L 124.746094 462.734375 L 124.621094 467.433594 L 126.199219 471.460938 L 123.21875 482.878906 L 123.523438 485.949219 L 122.523438 490.03125 L 125.207031 495.539063 L 126.96875 497.335938 L 130.089844 498.691406 L 137.144531 495.761719 L 138.265625 497.722656 L 142.800781 497.8125 L 149.914063 493.859375 L 157.976563 496.933594 L 161.582031 493.308594 L 163.3125 494.945313 L 164.59375 494.5625 L 165.015625 490.601563 L 160.964844 491.855469 L 157.910156 490.089844 L 157.664063 488.652344 L 161.25 483.914063 L 165.308594 482.363281 L 168.890625 486.347656 L 168.945313 488.03125 L 167.246094 489.550781 L 167.523438 489.613281 L 172.425781 490.191406 L 171.871094 487.886719 L 173.15625 487.421875 L 175.523438 491.496094 L 181.824219 489.671875 L 187.550781 491.421875 L 195.269531 493.417969 L 199.8125 497.9375 L 202.285156 498.535156 L 207.503906 494.257813 L 213.714844 490.441406 L 217.789063 491.546875 L 221.007813 490 L 222.578125 492.460938 L 224.636719 489.308594 L 223.148438 483.324219 L 224.714844 481.175781 L 223.71875 478.996094 L 223.863281 473.871094 L 223.148438 472.742188 L 223.628906 471.550781 L 224.050781 471.429688 L 224.890625 463.183594 L 223.285156 459.714844 L 221.816406 452.503906 L 219.457031 448.101563 L 220.832031 441.421875 L 224.792969 441.566406 L 228.582031 438.09375 L 230.441406 437.746094 L 231.714844 435.6875 L 230.210938 426.769531 L 233.757813 428.316406 L 238.621094 426.476563 L 236.132813 423.492188 L 237.308594 413.515625 L 235.601563 408.957031 L 229.601563 403.839844 L 228.578125 401.511719 L 229.085938 398.523438 L 224.839844 394.070313 L 225.269531 389.914063 L 223.933594 383.53125 L 224.800781 381.828125 L 224.183594 378.023438 L 222.828125 373.632813 L 220.289063 376.925781 L 217.789063 377.457031 L 216.503906 376.332031 L 215.960938 372.339844 L 213.273438 372.464844 L 214.101563 369.191406 L 212.273438 363.3125 L 205.390625 363.761719 L 205.808594 358.160156 Z M 198.871094 358.894531 "/>
<path style="fill-rule:evenodd;fill:rgb(93.333333%,67.843137%,5.490196%);fill-opacity:1;stroke-width:0.426791;stroke-linecap:butt;stroke-linejoin:round;stroke:rgb(34.901961%,34.901961%,34.901961%);stroke-opacity:1;stroke-miterlimit:10;" d="M 235.195313 319.953125 L 232.410156 314.664063 L 227.507813 310.949219 L 223.652344 310.488281 L 221.171875 312.921875 L 217.789063 318.710938 L 217.035156 318.96875 L 214.367188 320.050781 L 210.726563 318.863281 L 209.101563 322.925781 L 209.09375 326.15625 L 204.804688 330.859375 L 200.371094 330.5625 L 200.320313 338.515625 L 196.269531 339.675781 L 194.484375 337.097656 L 189.207031 336.058594 L 186.574219 337.960938 L 181.699219 338.195313 L 180.050781 340.960938 L 179.566406 342.195313 L 181.554688 343.316406 L 181.050781 345.691406 L 182.378906 353.492188 L 181.832031 354.730469 L 185.101563 358.359375 L 185.925781 361.472656 L 183.441406 368.84375 L 184.453125 371.515625 L 189.191406 371.347656 L 192 367.304688 L 196.5 366.148438 L 196.234375 362.960938 L 194.121094 362.902344 L 193.136719 360.085938 L 198.871094 358.894531 L 205.808594 358.160156 L 205.390625 363.761719 L 212.273438 363.3125 L 214.101563 369.191406 L 213.273438 372.464844 L 215.960938 372.339844 L 216.503906 376.332031 L 217.789063 377.457031 L 220.289063 376.925781 L 222.828125 373.632813 L 224.183594 378.023438 L 224.800781 381.828125 L 223.933594 383.53125 L 225.269531 389.914063 L 224.839844 394.070313 L 229.085938 398.523438 L 228.578125 401.511719 L 229.601563 403.839844 L 235.601563 408.957031 L 237.308594 413.515625 L 236.132813 423.492188 L 238.621094 426.476563 L 233.757813 428.316406 L 230.210938 426.769531 L 231.714844 435.6875 L 230.441406 437.746094 L 228.582031 438.09375 L 224.792969 441.566406 L 220.832031 441.421875 L 219.457031 448.101563 L 221.816406 452.503906 L 223.285156 459.714844 L 224.890625 463.183594 L 224.050781 471.429688 L 223.628906 471.550781 L 223.148438 472.742188 L 223.863281 473.871094 L 223.71875 478.996094 L 224.714844 481.175781 L 223.148438 483.324219 L 224.636719 489.308594 L 222.578125 492.460938 L 221.007813 490 L 217.789063 491.546875 L 213.714844 490.441406 L 207.503906 494.257813 L 202.285156 498.535156 L 207.675781 499.191406 L 211.476563 495.984375 L 214.058594 498.6875 L 218.292969 498.265625 L 219.535156 502.207031 L 222.839844 504.414063 L 223.546875 509.472656 L 227.28125 508.367188 L 228.0625 510.222656 L 226.53125 515.496094 L 231.6875 513.515625 L 234.550781 510.222656 L 237.878906 505.078125 L 236.78125 500.625 L 237.335938 497.667969 L 241.199219 498.828125 L 244.480469 497.113281 L 250.363281 499.914063 L 254.230469 498.851563 L 254.15625 502.144531 L 257.03125 504.308594 L 258.339844 507.628906 L 259.328125 507.617188 L 266.839844 505.484375 L 269.054688 507.128906 L 271.707031 504.628906 L 275.175781 504.589844 L 274.164063 502.894531 L 274.738281 501.441406 L 280.542969 500.207031 L 283.449219 495.378906 L 291.121094 495.808594 L 300.191406 493.738281 L 305.429688 493.863281 L 304.554688 488.980469 L 306.753906 487.363281 L 307.730469 487.164063 L 308.148438 489.613281 L 311.042969 488.851563 L 314.605469 489.347656 L 317.566406 493.0625 L 320.316406 492.894531 L 321.84375 490.472656 L 325.042969 489.777344 L 328.738281 492.996094 L 329.269531 497.464844 L 333.78125 501.476563 L 337.277344 502.917969 L 338.75 499.871094 L 340.226563 490.621094 L 338.046875 487.796875 L 333.742188 487.296875 L 336.765625 478.972656 L 334.554688 473.941406 L 332.085938 472.28125 L 331.476563 470.160156 L 327.226563 462.910156 L 332.085938 457.652344 L 334.78125 457.050781 L 338.394531 453.644531 L 343.875 451.578125 L 347.792969 451.078125 L 352.664063 446.769531 L 354.550781 438.421875 L 354.105469 435.699219 L 357.035156 433.074219 L 365.398438 437.9375 L 369.011719 431.703125 L 368.101563 425.421875 L 369.800781 421.800781 L 365.746094 415.238281 L 363.277344 414.5625 L 358.53125 409.558594 L 356.246094 410.632813 L 353.253906 408.796875 L 351.671875 403.503906 L 344.734375 399.363281 L 343.636719 396.71875 L 337.367188 388.425781 L 334.28125 386.082031 L 328.796875 385.71875 L 322.617188 377.835938 L 322.703125 375.1875 L 321.050781 373.71875 L 318.003906 365.121094 L 313.527344 360.226563 L 315.953125 358.351563 L 319.378906 351.074219 L 317.070313 349.125 L 316.65625 346.683594 L 308.023438 341.519531 L 308.039063 339.972656 L 305.898438 338.0625 L 305.816406 334.460938 L 304.105469 331.433594 L 302.175781 329.832031 L 302.796875 327.359375 L 301.765625 325.304688 L 298.652344 323.964844 L 294.660156 318.648438 L 291.4375 320.351563 L 282.292969 320.265625 L 279.242188 321.191406 L 277.527344 318.21875 L 275.546875 317.632813 L 274.382813 312.855469 L 269.089844 315.234375 L 269.515625 321.984375 L 268.488281 327.046875 L 266.117188 328.226563 L 263.40625 322.796875 L 260.144531 323.214844 L 256.558594 321.035156 L 248.519531 322.730469 L 248.371094 325.171875 L 251.355469 328.636719 L 248.085938 330.796875 L 243.425781 330.925781 L 242.667969 324.613281 L 237.183594 320.074219 Z M 235.195313 319.953125 "/>
<path style="fill-rule:evenodd;fill:rgb(0%,0%,0%);fill-opacity:1;stroke-width:0.426791;stroke-linecap:butt;stroke-linejoin:round;stroke:rgb(34.901961%,34.901961%,34.901961%);stroke-opacity:1;stroke-miterlimit:10;" d="M 350.019531 181.105469 L 348.207031 179.5625 L 343.375 182.980469 L 341.9375 187.464844 L 342.960938 189.039063 L 341.257813 193.363281 L 343.441406 195.75 L 345.902344 194.402344 L 349.15625 195.441406 L 353.421875 196.875 L 354.476563 194.496094 L 362.644531 198.476563 L 364.328125 196.773438 L 365.726563 192.980469 L 363.046875 190.761719 L 360.851563 186.390625 L 356.996094 183.144531 L 356.574219 179.757813 L 352.542969 179.90625 Z M 350.019531 181.105469 "/>
<path style="fill-rule:evenodd;fill:rgb(0%,0%,0%);fill-opacity:1;stroke-width:0.426791;stroke-linecap:butt;stroke-linejoin:round;stroke:rgb(34.901961%,34.901961%,34.901961%);stroke-opacity:1;stroke-miterlimit:10;" d="M 390.621094 138.457031 L 384.824219 141.664063 L 381.769531 141.136719 L 382.601563 138.457031 L 384.78125 135.167969 L 385.21875 131.957031 L 373.371094 131.277344 L 368.226563 124.273438 L 368.0625 127.789063 L 364.734375 128.058594 L 358.917969 133.246094 L 356.519531 138.457031 L 352.640625 141.707031 L 348.394531 141.144531 L 346.394531 143.449219 L 342.386719 142.648438 L 336.347656 147.65625 L 323.425781 142.785156 L 315.734375 141.929688 L 310.796875 138.109375 L 310.539063 137.902344 L 300.128906 135.804688 L 298.40625 138.457031 L 290.859375 143.382813 L 282.515625 143.753906 L 278.664063 149.78125 L 269.082031 150.339844 L 271.839844 154.089844 L 276.355469 153.414063 L 282.078125 155.710938 L 290.9375 161.082031 L 292.695313 164.015625 L 302.777344 164.804688 L 303.296875 166.472656 L 306.410156 166.585938 L 307.648438 169.703125 L 307.566406 170.941406 L 306.203125 172.585938 L 306.976563 179.9375 L 304.703125 182.054688 L 304.53125 188.757813 L 307.964844 188.707031 L 310.226563 192.015625 L 306.785156 209.859375 L 308.644531 213.859375 L 312.535156 217.535156 L 319.476563 221.261719 L 323.804688 219.921875 L 327.9375 221.644531 L 342.851563 229.113281 L 343.382813 238.691406 L 338.945313 242.335938 L 342.441406 245.074219 L 344.5 248.917969 L 345.171875 257.496094 L 347.304688 258.230469 L 352.921875 255.121094 L 358.359375 259.128906 L 363.996094 259.414063 L 369.636719 259.238281 L 376.148438 258.757813 L 380.304688 250.667969 L 382.472656 248.992188 L 388.929688 250.332031 L 393.601563 248.925781 L 398.136719 246.949219 L 401.90625 248.265625 L 404.640625 246.449219 L 405.789063 244.441406 L 405.507813 241.363281 L 399.558594 231.210938 L 403.511719 225.476563 L 404.125 220.277344 L 405.632813 215.980469 L 402.902344 212.621094 L 403.605469 205.328125 L 399.59375 203.375 L 396.992188 195.703125 L 400.382813 189.902344 L 400.542969 184.394531 L 398.191406 181.382813 L 393.160156 177.925781 L 384.808594 169.703125 L 381.53125 168.347656 L 382.210938 164.46875 L 381.703125 160.363281 L 389.980469 153.742188 L 390.796875 146.078125 L 393.234375 141.824219 L 392.457031 138.457031 L 392.207031 137.382813 Z M 341.9375 187.464844 L 343.375 182.980469 L 348.207031 179.5625 L 350.019531 181.105469 L 352.542969 179.90625 L 356.574219 179.757813 L 356.996094 183.144531 L 360.851563 186.390625 L 363.046875 190.761719 L 365.726563 192.980469 L 364.328125 196.773438 L 362.644531 198.476563 L 354.476563 194.496094 L 353.421875 196.875 L 349.15625 195.441406 L 345.902344 194.402344 L 343.441406 195.75 L 341.257813 193.363281 L 342.960938 189.039063 Z M 341.9375 187.464844 "/>
<path style="fill-rule:evenodd;fill:rgb(0%,0%,0%);fill-opacity:1;stroke-width:0.426791;stroke-linecap:butt;stroke-linejoin:round;stroke:rgb(34.901961%,34.901961%,34.901961%);stroke-opacity:1;stroke-miterlimit:10;" d="M 179.195313 155.152344 L 178.839844 150.980469 L 179.800781 150.085938 L 160.28125 143.78125 L 165.375 147.769531 L 166.917969 151.160156 L 169.128906 155.167969 L 177.125 157.265625 Z M 179.195313 155.152344 "/>
<path style="fill-rule:evenodd;fill:rgb(0%,0%,0%);fill-opacity:1;stroke-width:0.426791;stroke-linecap:butt;stroke-linejoin:round;stroke:rgb(34.901961%,34.901961%,34.901961%);stroke-opacity:1;stroke-miterlimit:10;" d="M 165.132813 127.363281 L 166.546875 125.421875 L 166.203125 120.628906 L 161.652344 120.125 L 160.75 121.195313 L 163.003906 125.183594 L 160.566406 128.472656 Z M 165.132813 127.363281 "/>
<path style="fill-rule:evenodd;fill:rgb(0%,0%,0%);fill-opacity:1;stroke-width:0.426791;stroke-linecap:butt;stroke-linejoin:round;stroke:rgb(34.901961%,34.901961%,34.901961%);stroke-opacity:1;stroke-miterlimit:10;" d="M 226.050781 123.5625 L 226.972656 119.871094 L 225.511719 113.535156 L 222.347656 114.457031 L 217.414063 117.210938 L 214.175781 120.046875 L 210.269531 120.039063 L 208.992188 123.160156 L 210.40625 123.832031 L 210.507813 126.421875 L 214.175781 130.519531 L 218.933594 131.578125 L 221.863281 129.539063 L 227.554688 133.195313 L 231.601563 130.921875 L 228.8125 126.980469 Z M 226.050781 123.5625 "/>
<path style="fill-rule:evenodd;fill:rgb(0%,0%,0%);fill-opacity:1;stroke-width:0.426791;stroke-linecap:butt;stroke-linejoin:round;stroke:rgb(34.901961%,34.901961%,34.901961%);stroke-opacity:1;stroke-miterlimit:10;" d="M 160.929688 98.382813 L 159.433594 101.765625 L 160.949219 102.191406 L 162.015625 100.574219 Z M 160.929688 98.382813 "/>
<path style="fill-rule:evenodd;fill:rgb(93.333333%,0%,0%);fill-opacity:1;stroke-width:0.426791;stroke-linecap:butt;stroke-linejoin:round;stroke:rgb(34.901961%,34.901961%,34.901961%);stroke-opacity:1;stroke-miterlimit:10;" d="M 204.484375 243.390625 L 197.65625 242.167969 L 194.1875 244.542969 L 192.160156 250.421875 L 186.503906 255.128906 L 184.308594 254.535156 L 183.121094 251.792969 L 179.273438 251.128906 L 176.628906 252.839844 L 178.078125 256.121094 L 177.730469 258.023438 L 168.648438 259.519531 L 164.113281 263.898438 L 163.480469 265.394531 L 164.386719 266.683594 L 169.449219 266.253906 L 170.746094 270.964844 L 167.609375 276.34375 L 162.777344 276.394531 L 161.453125 277.742188 L 161.941406 281.75 L 159.988281 284.683594 L 155.199219 291.363281 L 151.433594 290.792969 L 147.332031 294.902344 L 147.433594 299.574219 L 146.210938 302.355469 L 147.21875 307.75 L 145.882813 311.265625 L 142.921875 310.835938 L 141.261719 312.527344 L 140.175781 319.800781 L 143.421875 321.917969 L 146.058594 327.851563 L 142.769531 328.890625 L 142.375 331.269531 L 137.859375 332.644531 L 137.164063 333.917969 L 138.082031 337.242188 L 132.445313 341 L 132.9375 342.195313 L 137.695313 346.714844 L 148.140625 343.011719 L 148.726563 342.949219 L 150.84375 343.570313 L 152.570313 345.453125 L 154.710938 348.863281 L 156.945313 357.402344 L 159.175781 360.367188 L 158.835938 361.769531 L 158.757813 361.949219 L 155.507813 364.773438 L 157.519531 370.417969 L 157.820313 371.148438 L 164.039063 375.117188 L 165.238281 373.289063 L 164.945313 369.6875 L 166.917969 369.003906 L 169.621094 374.449219 L 176.492188 376.121094 L 176.480469 377.3125 L 174.105469 378.179688 L 173.339844 382.316406 L 175.855469 381.625 L 177.753906 378.183594 L 183.679688 374.738281 L 185.207031 375.195313 L 184.453125 371.515625 L 183.441406 368.84375 L 185.925781 361.472656 L 185.101563 358.359375 L 181.832031 354.730469 L 182.378906 353.492188 L 181.050781 345.691406 L 181.554688 343.316406 L 179.566406 342.195313 L 180.050781 340.960938 L 181.699219 338.195313 L 186.574219 337.960938 L 189.207031 336.058594 L 194.484375 337.097656 L 196.269531 339.675781 L 200.320313 338.515625 L 200.371094 330.5625 L 204.804688 330.859375 L 209.09375 326.15625 L 209.101563 322.925781 L 210.726563 318.863281 L 214.367188 320.050781 L 217.035156 318.96875 L 217.789063 318.710938 L 221.171875 312.921875 L 221.355469 307.152344 L 222.585938 305.363281 L 220.214844 303.449219 L 217.347656 305.441406 L 215.636719 304.597656 L 216.664063 297.265625 L 220.222656 290.488281 L 219.15625 287.535156 L 220.394531 283.191406 L 226.6875 282.84375 L 227.464844 282 L 225.648438 279.03125 L 225.289063 274.253906 L 227.769531 273.761719 L 227.648438 270.855469 L 217.789063 263.761719 L 216.75 259.332031 L 215.566406 256.96875 L 211.714844 257.75 L 208.765625 260.183594 L 210.371094 262.722656 L 209.078125 264.328125 L 202.648438 261.535156 L 202.226563 260.824219 L 205.167969 256.484375 L 204.1875 250.742188 L 205.769531 248.273438 L 205.015625 247.296875 L 205.0625 246.425781 L 205.582031 246.441406 L 206.730469 247.28125 L 207.238281 246.433594 Z M 204.484375 243.390625 "/>
<path style="fill:none;stroke-width:0.426791;stroke-linecap:butt;stroke-linejoin:round;stroke:rgb(100%,100%,100%);stroke-opacity:1;stroke-miterlimit:10;" d="M 194.8125 44.121094 L 191.054688 45.007813 L 189.167969 42.433594 L 184.847656 41.039063 L 166.171875 38.664063 L 166.90625 45.101563 L 174.609375 57.453125 L 174.375 64.824219 L 177.734375 66.644531 L 175.414063 69.550781 L 168.566406 71.554688 L 166.449219 75.5 L 168.351563 77.503906 L 174.347656 78.933594 L 172.964844 83.960938 L 174.5625 87.316406 L 177.644531 88.082031 L 179.164063 92.28125 L 173.871094 94.058594 L 178.992188 101.84375 L 188.238281 103.035156 L 191.09375 103.808594 L 199.433594 113.792969 L 202.441406 119.710938 L 208.992188 123.160156 L 210.269531 120.039063 L 214.175781 120.046875 L 217.414063 117.210938 L 222.347656 114.457031 L 225.511719 113.535156 L 226.972656 119.871094 L 226.050781 123.5625 L 228.8125 126.980469 L 231.601563 130.921875 L 237.914063 133.875 L 242.835938 135.242188 L 244.570313 129.988281 L 250.320313 126.621094 L 252.21875 122.5625 L 254.808594 122.089844 L 256.804688 117.539063 L 255.765625 114.976563 L 249.691406 111.191406 L 249.410156 107.335938 L 249.414063 104.164063 L 254.914063 98.246094 L 252.457031 96.058594 L 249.484375 93.824219 L 250.074219 90.765625 L 260.324219 84.648438 L 262.054688 82.726563 L 262.167969 73.496094 L 264.832031 70.359375 L 270.453125 69.890625 L 268.3125 65.945313 L 267.433594 64.324219 L 261.140625 62.664063 L 259.675781 65.945313 L 259.21875 66.964844 L 262.007813 68.625 L 261.925781 71.492188 L 255.75 71.996094 L 247.484375 76.515625 L 233.144531 68.609375 L 228.683594 69.964844 L 226.367188 73.976563 L 226.148438 68.542969 L 223.441406 66.195313 L 217.121094 65.546875 L 220.773438 55.832031 L 217.578125 46.960938 L 216.238281 46.308594 L 214.175781 48.53125 L 203.238281 42.246094 L 199.671875 44.21875 L 197.742188 45.339844 L 196.96875 44.183594 L 196.863281 43.636719 Z M 194.8125 44.121094 "/>
<path style="fill:none;stroke-width:0.426791;stroke-linecap:butt;stroke-linejoin:round;stroke:rgb(100%,100%,100%);stroke-opacity:1;stroke-miterlimit:10;" d="M 256.78125 100.292969 L 254.976563 99.996094 L 254.132813 101.789063 L 254.640625 102.539063 L 256.867188 101.890625 Z M 256.78125 100.292969 "/>
<path style="fill:none;stroke-width:0.426791;stroke-linecap:butt;stroke-linejoin:round;stroke:rgb(100%,100%,100%);stroke-opacity:1;stroke-miterlimit:10;" d="M 168.558594 63.355469 L 169.109375 61.015625 L 168.203125 60.789063 L 164.699219 62.210938 L 164.246094 62.917969 L 165.707031 65.039063 L 167.554688 64.675781 Z M 168.558594 63.355469 "/>
<path style="fill:none;stroke-width:0.426791;stroke-linecap:butt;stroke-linejoin:round;stroke:rgb(100%,100%,100%);stroke-opacity:1;stroke-miterlimit:10;" d="M 164.636719 50.703125 L 164.308594 49.300781 L 162.222656 48.394531 L 158.378906 48.855469 L 156.746094 50.933594 L 157.03125 51.847656 L 160.3125 53.109375 L 163.496094 53.082031 Z M 164.636719 50.703125 "/>
<path style="fill:none;stroke-width:0.426791;stroke-linecap:butt;stroke-linejoin:round;stroke:rgb(100%,100%,100%);stroke-opacity:1;stroke-miterlimit:10;" d="M 163.460938 58.347656 L 161.5 59.867188 L 162.519531 61.832031 L 163.871094 61.546875 Z M 163.460938 58.347656 "/>
<path style="fill:none;stroke-width:0.426791;stroke-linecap:butt;stroke-linejoin:round;stroke:rgb(100%,100%,100%);stroke-opacity:1;stroke-miterlimit:10;" d="M 155.492188 38.828125 L 155.40625 35.722656 L 154.480469 34.835938 L 152.902344 38.695313 L 152.5 41.898438 L 152.925781 42.507813 L 154.574219 40.710938 L 157.582031 42.707031 L 159.457031 41.683594 L 159.128906 40.835938 L 156.191406 39.878906 Z M 155.492188 38.828125 "/>
<path style="fill:none;stroke-width:0.426791;stroke-linecap:butt;stroke-linejoin:round;stroke:rgb(100%,100%,100%);stroke-opacity:1;stroke-miterlimit:10;" d="M 158.453125 30.285156 L 156.863281 29.765625 L 155.25 33.359375 L 155.632813 33.914063 L 158.554688 32.085938 Z M 158.453125 30.285156 "/>
<path style="fill:none;stroke-width:0.426791;stroke-linecap:butt;stroke-linejoin:round;stroke:rgb(100%,100%,100%);stroke-opacity:1;stroke-miterlimit:10;" d="M 155.5 54.953125 L 154.582031 52.109375 L 152.613281 53.910156 L 155.644531 57.734375 L 157.113281 57.199219 Z M 155.5 54.953125 "/>
<path style="fill:none;stroke-width:0.426791;stroke-linecap:butt;stroke-linejoin:round;stroke:rgb(100%,100%,100%);stroke-opacity:1;stroke-miterlimit:10;" d="M 152.046875 45.757813 L 151.566406 48.054688 L 152.730469 49.667969 L 153.820313 46.53125 Z M 152.046875 45.757813 "/>
<path style="fill:none;stroke-width:0.426791;stroke-linecap:butt;stroke-linejoin:round;stroke:rgb(100%,100%,100%);stroke-opacity:1;stroke-miterlimit:10;" d="M 254.621094 247.128906 L 255.398438 244.289063 L 247 242.679688 L 246.054688 242.917969 L 244.703125 247.367188 L 238.671875 246.886719 L 234.742188 246.578125 L 230.738281 251.96875 L 216.75 259.332031 L 217.789063 263.761719 L 227.648438 270.855469 L 227.769531 273.761719 L 225.289063 274.253906 L 225.648438 279.03125 L 227.464844 282 L 226.6875 282.84375 L 220.394531 283.191406 L 219.15625 287.535156 L 220.222656 290.488281 L 216.664063 297.265625 L 215.636719 304.597656 L 217.347656 305.441406 L 220.214844 303.449219 L 222.585938 305.363281 L 221.355469 307.152344 L 221.171875 312.921875 L 223.652344 310.488281 L 227.507813 310.949219 L 232.410156 314.664063 L 235.195313 319.953125 L 237.183594 320.074219 L 242.667969 324.613281 L 243.425781 330.925781 L 248.085938 330.796875 L 251.355469 328.636719 L 248.371094 325.171875 L 248.519531 322.730469 L 256.558594 321.035156 L 260.144531 323.214844 L 263.40625 322.796875 L 266.117188 328.226563 L 268.488281 327.046875 L 269.515625 321.984375 L 269.089844 315.234375 L 274.382813 312.855469 L 275.546875 317.632813 L 277.527344 318.21875 L 279.242188 321.191406 L 282.292969 320.265625 L 291.4375 320.351563 L 294.660156 318.648438 L 294.175781 317.230469 L 295.710938 314.171875 L 293.246094 311.652344 L 295.628906 308.253906 L 298.226563 307.402344 L 300 310.472656 L 310.296875 302.933594 L 307.148438 298.792969 L 308.585938 296.5 L 307.632813 294.085938 L 323.363281 287.511719 L 321.972656 283.949219 L 319.417969 282.699219 L 316.242188 277.933594 L 308.910156 277.015625 L 308.855469 281.578125 L 306.589844 286.3125 L 304.214844 285.335938 L 298.636719 284.679688 L 293.363281 279.632813 L 289.03125 279.707031 L 285.957031 277.292969 L 277.648438 276.171875 L 276.90625 271.128906 L 273.625 269.332031 L 273.765625 267.40625 L 277.230469 264.339844 L 274.5625 261.398438 L 273.691406 259.011719 L 270.945313 257.5 L 257.828125 256.113281 Z M 254.621094 247.128906 "/>
<path style="fill:none;stroke-width:0.426791;stroke-linecap:butt;stroke-linejoin:round;stroke:rgb(100%,100%,100%);stroke-opacity:1;stroke-miterlimit:10;" d="M 349 82.941406 L 348.070313 80.804688 L 345.386719 80.210938 L 343.042969 79.140625 L 341.476563 78.488281 L 340.84375 77.183594 L 342.15625 76.339844 L 336.355469 69.320313 L 331.796875 69.0625 L 329.003906 72.28125 L 319.601563 67.203125 L 317.210938 69.53125 L 317.519531 73.085938 L 316.179688 75.789063 L 314.128906 77.160156 L 311.785156 75.722656 L 308.988281 78.394531 L 305.683594 80.285156 L 302.867188 83.964844 L 297.78125 84.648438 L 285.550781 86.492188 L 280.667969 93.800781 L 273.875 95.824219 L 274.292969 97.367188 L 277.316406 98.214844 L 276.082031 100.902344 L 271.871094 98.691406 L 269.152344 99.40625 L 264.855469 94.691406 L 254.914063 98.246094 L 249.414063 104.164063 L 249.410156 107.335938 L 249.691406 111.191406 L 255.765625 114.976563 L 256.804688 117.539063 L 254.808594 122.089844 L 252.21875 122.5625 L 250.320313 126.621094 L 244.570313 129.988281 L 242.835938 135.242188 L 246.90625 135.316406 L 251.882813 138.238281 L 257.34375 137.335938 L 265.410156 148.175781 L 269.082031 150.339844 L 278.664063 149.78125 L 282.515625 143.753906 L 290.859375 143.382813 L 298.40625 138.457031 L 300.128906 135.804688 L 310.539063 137.902344 L 310.796875 138.109375 L 315.734375 141.929688 L 323.425781 142.785156 L 336.347656 147.65625 L 342.386719 142.648438 L 346.394531 143.449219 L 348.394531 141.144531 L 352.640625 141.707031 L 356.519531 138.457031 L 358.917969 133.246094 L 364.734375 128.058594 L 368.0625 127.789063 L 368.226563 124.273438 L 373.371094 131.277344 L 385.21875 131.957031 L 384.78125 135.167969 L 382.601563 138.457031 L 381.769531 141.136719 L 384.824219 141.664063 L 390.621094 138.457031 L 392.207031 137.382813 L 386.550781 114.410156 L 384.792969 111.519531 L 378.339844 110.714844 L 373.6875 106.753906 L 377.871094 103.882813 L 384.417969 103.882813 L 384.933594 100.003906 L 377.394531 93.78125 L 376.953125 97.136719 L 373.070313 97.015625 L 372.984375 101.105469 L 372.046875 101.933594 L 368.464844 94.964844 L 371.996094 93.714844 L 372.597656 91.320313 L 368.792969 85.15625 L 355.425781 89.019531 L 349.445313 83.476563 Z M 254.640625 102.539063 L 254.132813 101.789063 L 254.976563 99.996094 L 256.78125 100.292969 L 256.867188 101.890625 Z M 254.640625 102.539063 "/>
<path style="fill:none;stroke-width:0.426791;stroke-linecap:butt;stroke-linejoin:round;stroke:rgb(100%,100%,100%);stroke-opacity:1;stroke-miterlimit:10;" d="M 352.625 58.636719 L 351.90625 55.1875 L 348.492188 54.878906 L 343.492188 64.230469 L 344.203125 70.949219 L 342.410156 75.675781 L 344.234375 76.589844 L 345.089844 78.667969 L 347.398438 79.675781 L 349.222656 80.566406 L 350.316406 80.5625 L 356.144531 75.363281 L 364.367188 74.703125 L 360.726563 67.640625 L 361.863281 61.222656 L 356.566406 61.039063 L 357.367188 65.863281 L 356.21875 67.097656 L 351.449219 60.90625 Z M 352.625 58.636719 "/>
<path style="fill:none;stroke-width:0.426791;stroke-linecap:butt;stroke-linejoin:round;stroke:rgb(100%,100%,100%);stroke-opacity:1;stroke-miterlimit:10;" d="M 340.535156 59.757813 L 339.792969 62.515625 L 342.019531 62.546875 L 341.578125 59.226563 Z M 340.535156 59.757813 "/>
<path style="fill:none;stroke-width:0.426791;stroke-linecap:butt;stroke-linejoin:round;stroke:rgb(100%,100%,100%);stroke-opacity:1;stroke-miterlimit:10;" d="M 280.90625 88.761719 L 278.929688 90.882813 L 279.796875 92.386719 L 281.753906 90.527344 Z M 280.90625 88.761719 "/>
<path style="fill:none;stroke-width:0.426791;stroke-linecap:butt;stroke-linejoin:round;stroke:rgb(100%,100%,100%);stroke-opacity:1;stroke-miterlimit:10;" d="M 172.304688 105.789063 L 168.179688 102.296875 L 165.03125 103.417969 L 162.933594 106.746094 L 160.3125 115.003906 L 161.652344 120.125 L 166.203125 120.628906 L 166.546875 125.421875 L 165.132813 127.363281 L 160.566406 128.472656 L 163.003906 125.183594 L 152.898438 119.984375 L 150.554688 124.398438 L 153.007813 125.75 L 153.269531 129.636719 L 151.398438 132.644531 L 148.941406 132.421875 L 144.746094 129.457031 L 143.6875 126.378906 L 147.632813 124.644531 L 146.867188 120.835938 L 144.859375 118.132813 L 143.195313 117.53125 L 141.503906 113.746094 L 133.851563 113.792969 L 123.6875 115.828125 L 113.617188 115.628906 L 108.613281 118.625 L 106.09375 122.027344 L 106.957031 124.65625 L 103.839844 125.246094 L 102.136719 135.496094 L 112.5 137.640625 L 110.332031 142.785156 L 110.09375 150.882813 L 110.027344 158.855469 L 105.785156 168.046875 L 105 169.703125 L 104.246094 179.34375 L 102.402344 180.492188 L 90.796875 181.175781 L 91.582031 184.523438 L 90.332031 190.007813 L 99.1875 192.792969 L 101.996094 191.996094 L 104.625 197.074219 L 103.503906 202.164063 L 104.726563 205.289063 L 106.035156 205.183594 L 114.582031 202.863281 L 124.261719 196.65625 L 125.949219 190.773438 L 128.632813 192 L 131.347656 195.953125 L 138.15625 197.289063 L 139.90625 200.082031 L 139.585938 203.347656 L 137.847656 207.597656 L 141.097656 209.921875 L 141.363281 212.617188 L 136.792969 215.152344 L 139.855469 217.789063 L 145.0625 216.785156 L 151.675781 212.449219 L 157.355469 213.167969 L 160.40625 209.351563 L 158.953125 206.582031 L 159.53125 203.652344 L 158.394531 197.996094 L 154.226563 195.191406 L 152.917969 191.867188 L 157.515625 192.433594 L 160.539063 188.828125 L 166.332031 187.59375 L 168.796875 189.125 L 169.003906 193.925781 L 170.4375 195.761719 L 178.125 194.886719 L 183.144531 189.320313 L 184.773438 190.527344 L 185.320313 194.644531 L 180.171875 200.910156 L 179.769531 203.617188 L 182.410156 206.558594 L 181.859375 208.441406 L 180.171875 208.484375 L 181.25 211.371094 L 185.4375 212.109375 L 186.507813 214.246094 L 188.101563 222.019531 L 190.351563 222.246094 L 192.507813 225.171875 L 193.566406 227.269531 L 193.074219 229.394531 L 197.367188 230.503906 L 195.453125 241.355469 L 196.75 242.363281 L 197.65625 242.167969 L 204.484375 243.390625 L 207.238281 246.433594 L 206.730469 247.28125 L 205.582031 246.441406 L 205.0625 246.425781 L 205.015625 247.296875 L 205.769531 248.273438 L 204.1875 250.742188 L 205.167969 256.484375 L 202.226563 260.824219 L 202.648438 261.535156 L 209.078125 264.328125 L 210.371094 262.722656 L 208.765625 260.183594 L 211.714844 257.75 L 215.566406 256.96875 L 216.75 259.332031 L 230.738281 251.96875 L 234.742188 246.578125 L 238.671875 246.886719 L 244.703125 247.367188 L 246.054688 242.917969 L 247 242.679688 L 242.652344 233.746094 L 242.425781 230.386719 L 244.5625 226.550781 L 241.515625 220.097656 L 245.9375 217.539063 L 250.917969 217.355469 L 257.292969 216.816406 L 257.296875 214.035156 L 260.683594 210.628906 L 259.613281 208.148438 L 261.3125 205.75 L 259.15625 199.472656 L 261.171875 197.367188 L 256.121094 190.910156 L 259.027344 189.355469 L 256.832031 185.699219 L 257.285156 181.800781 L 255.195313 181.246094 L 249.265625 170.691406 L 252.484375 167.175781 L 256.195313 166.855469 L 260.359375 163.621094 L 270.402344 165.550781 L 278.445313 161.632813 L 278.632813 158.386719 L 282.078125 155.710938 L 276.355469 153.414063 L 271.839844 154.089844 L 269.082031 150.339844 L 265.410156 148.175781 L 257.34375 137.335938 L 251.882813 138.238281 L 246.90625 135.316406 L 242.835938 135.242188 L 237.914063 133.875 L 231.601563 130.921875 L 227.554688 133.195313 L 221.863281 129.539063 L 218.933594 131.578125 L 214.175781 130.519531 L 210.507813 126.421875 L 210.40625 123.832031 L 208.992188 123.160156 L 202.441406 119.710938 L 199.433594 113.792969 L 191.09375 103.808594 L 181.144531 105.859375 Z M 165.375 147.769531 L 160.28125 143.78125 L 179.800781 150.085938 L 178.839844 150.980469 L 179.195313 155.152344 L 177.125 157.265625 L 169.128906 155.167969 L 166.917969 151.160156 Z M 165.375 147.769531 "/>
<path style="fill:none;stroke-width:0.426791;stroke-linecap:butt;stroke-linejoin:round;stroke:rgb(100%,100%,100%);stroke-opacity:1;stroke-miterlimit:10;" d="M 129.875 108.742188 L 129.421875 109.703125 L 132.296875 111.050781 L 132.796875 108.847656 Z M 129.875 108.742188 "/>
<path style="fill:none;stroke-width:0.426791;stroke-linecap:butt;stroke-linejoin:round;stroke:rgb(100%,100%,100%);stroke-opacity:1;stroke-miterlimit:10;" d="M 128.644531 108.980469 L 127.621094 110.570313 L 128.917969 111.726563 L 129.878906 110.195313 Z M 128.644531 108.980469 "/>
<path style="fill:none;stroke-width:0.426791;stroke-linecap:butt;stroke-linejoin:round;stroke:rgb(100%,100%,100%);stroke-opacity:1;stroke-miterlimit:10;" d="M 122.457031 110.300781 L 120.8125 110.398438 L 119.667969 113.15625 L 121.667969 113.054688 Z M 122.457031 110.300781 "/>
<path style="fill:none;stroke-width:0.426791;stroke-linecap:butt;stroke-linejoin:round;stroke:rgb(100%,100%,100%);stroke-opacity:1;stroke-miterlimit:10;" d="M 113.570313 112.734375 L 109.546875 112.8125 L 108.808594 113.460938 L 109.03125 114.21875 L 113.496094 113.878906 Z M 113.570313 112.734375 "/>
<path style="fill:none;stroke-width:0.426791;stroke-linecap:butt;stroke-linejoin:round;stroke:rgb(100%,100%,100%);stroke-opacity:1;stroke-miterlimit:10;" d="M 106.011719 115.625 L 106.128906 115.105469 L 102.113281 115.34375 L 96.9375 116.078125 L 96.898438 116.46875 Z M 106.011719 115.625 "/>
<path style="fill:none;stroke-width:0.426791;stroke-linecap:butt;stroke-linejoin:round;stroke:rgb(100%,100%,100%);stroke-opacity:1;stroke-miterlimit:10;" d="M 96.871094 118.003906 L 97.339844 118.730469 L 97.90625 118.921875 L 98.476563 117.757813 L 98.273438 117.152344 L 96.929688 117.699219 Z M 96.871094 118.003906 "/>
<path style="fill:none;stroke-width:0.426791;stroke-linecap:butt;stroke-linejoin:round;stroke:rgb(100%,100%,100%);stroke-opacity:1;stroke-miterlimit:10;" d="M 92.710938 119.410156 L 88.65625 120.765625 L 89.054688 121.878906 L 90.996094 123.023438 L 93.691406 119.972656 Z M 92.710938 119.410156 "/>
<path style="fill:none;stroke-width:0.426791;stroke-linecap:butt;stroke-linejoin:round;stroke:rgb(100%,100%,100%);stroke-opacity:1;stroke-miterlimit:10;" d="M 166.332031 187.59375 L 160.539063 188.828125 L 157.515625 192.433594 L 152.917969 191.867188 L 154.226563 195.191406 L 158.394531 197.996094 L 159.53125 203.652344 L 158.953125 206.582031 L 160.40625 209.351563 L 157.355469 213.167969 L 151.675781 212.449219 L 145.0625 216.785156 L 139.855469 217.789063 L 136.792969 215.152344 L 141.363281 212.617188 L 141.097656 209.921875 L 137.847656 207.597656 L 139.585938 203.347656 L 139.90625 200.082031 L 138.15625 197.289063 L 131.347656 195.953125 L 128.632813 192 L 125.949219 190.773438 L 124.261719 196.65625 L 114.582031 202.863281 L 106.035156 205.183594 L 104.726563 205.289063 L 101.832031 206.484375 L 96.621094 212.445313 L 92.785156 212.953125 L 90.234375 217.179688 L 95.09375 220.945313 L 93.140625 225.261719 L 79.414063 229.007813 L 78.980469 231.078125 L 69.589844 226.542969 L 69.019531 229.960938 L 65.425781 229.164063 L 61.683594 231.003906 L 62.230469 234.648438 L 61.191406 236.085938 L 67.042969 241.800781 L 67.167969 245.265625 L 71.015625 250.382813 L 71.804688 259.976563 L 65.867188 267.613281 L 66.519531 271.582031 L 69.867188 271.238281 L 61.589844 279.75 L 59.113281 279.070313 L 58.214844 280.746094 L 59.496094 283.597656 L 63.382813 283.878906 L 64.226563 286.84375 L 66.425781 288.171875 L 65.839844 291.585938 L 63.425781 295.007813 L 63.847656 298.082031 L 67.664063 300.695313 L 70.21875 305.3125 L 73.046875 306.332031 L 70.433594 309.828125 L 70.546875 312.636719 L 75.375 314.136719 L 77.417969 317.371094 L 76.90625 321.496094 L 78.875 324.976563 L 79.667969 324.996094 L 79.902344 322.78125 L 85.808594 321.691406 L 90.503906 323.453125 L 94.359375 322.574219 L 93.175781 315.648438 L 97.554688 316.152344 L 99.335938 310.292969 L 108.011719 307.195313 L 109.796875 305.046875 L 110.410156 304.621094 L 110.46875 306.25 L 115.285156 304.984375 L 117.089844 300.773438 L 119.40625 300.757813 L 127.96875 296.53125 L 128.023438 293.960938 L 131.65625 291.53125 L 132.910156 286.5 L 135.476563 287.378906 L 135.0625 289.871094 L 139.921875 292.894531 L 140.246094 296.269531 L 142.839844 301.632813 L 146.210938 302.355469 L 147.433594 299.574219 L 147.332031 294.902344 L 151.433594 290.792969 L 155.199219 291.363281 L 159.988281 284.683594 L 161.941406 281.75 L 161.453125 277.742188 L 162.777344 276.394531 L 167.609375 276.34375 L 170.746094 270.964844 L 169.449219 266.253906 L 164.386719 266.683594 L 163.480469 265.394531 L 164.113281 263.898438 L 168.648438 259.519531 L 177.730469 258.023438 L 178.078125 256.121094 L 176.628906 252.839844 L 179.273438 251.128906 L 183.121094 251.792969 L 184.308594 254.535156 L 186.503906 255.128906 L 192.160156 250.421875 L 194.1875 244.542969 L 197.65625 242.167969 L 196.75 242.363281 L 195.453125 241.355469 L 197.367188 230.503906 L 193.074219 229.394531 L 193.566406 227.269531 L 192.507813 225.171875 L 190.351563 222.246094 L 188.101563 222.019531 L 186.507813 214.246094 L 185.4375 212.109375 L 181.25 211.371094 L 180.171875 208.484375 L 181.859375 208.441406 L 182.410156 206.558594 L 179.769531 203.617188 L 180.171875 200.910156 L 185.320313 194.644531 L 184.773438 190.527344 L 183.144531 189.320313 L 178.125 194.886719 L 170.4375 195.761719 L 169.003906 193.925781 L 168.796875 189.125 Z M 166.332031 187.59375 "/>
<path style="fill:none;stroke-width:0.426791;stroke-linecap:butt;stroke-linejoin:round;stroke:rgb(100%,100%,100%);stroke-opacity:1;stroke-miterlimit:10;" d="M 142.839844 301.632813 L 140.246094 296.269531 L 139.921875 292.894531 L 135.0625 289.871094 L 135.476563 287.378906 L 132.910156 286.5 L 131.65625 291.53125 L 128.023438 293.960938 L 127.96875 296.53125 L 119.40625 300.757813 L 117.089844 300.773438 L 115.285156 304.984375 L 110.46875 306.25 L 110.410156 304.621094 L 109.796875 305.046875 L 108.011719 307.195313 L 99.335938 310.292969 L 97.554688 316.152344 L 93.175781 315.648438 L 94.359375 322.574219 L 90.503906 323.453125 L 85.808594 321.691406 L 79.902344 322.78125 L 79.667969 324.996094 L 78.875 324.976563 L 75.34375 325.617188 L 70.589844 330.144531 L 68.410156 337.042969 L 68.03125 342.195313 L 72.9375 351.957031 L 75.808594 354.824219 L 81.609375 356.304688 L 83.023438 358.703125 L 82.628906 362.703125 L 79.960938 366.242188 L 77.898438 373.160156 L 86.203125 374.601563 L 97.910156 369.273438 L 103.25 367.648438 L 112.484375 371.714844 L 112.980469 373.316406 L 113.441406 378.1875 L 112.042969 380.625 L 113.605469 382.078125 L 117.648438 384.335938 L 117.890625 384.605469 L 117.59375 387.808594 L 113.988281 392.488281 L 114.691406 395.726563 L 116.585938 397.476563 L 120.96875 397.351563 L 122.875 401.320313 L 127.03125 404.183594 L 137.792969 404.730469 L 143.964844 407.59375 L 150.390625 409.636719 L 151.511719 408.742188 L 152.140625 408.179688 L 154.59375 402.546875 L 157.453125 391.960938 L 159.5625 389.890625 L 160.355469 389.453125 L 159.714844 386.289063 L 160.75 381.882813 L 160.914063 380.414063 L 159.777344 379.875 L 157.84375 373.742188 L 157.828125 371.722656 L 157.820313 371.148438 L 157.519531 370.417969 L 155.507813 364.773438 L 158.757813 361.949219 L 158.835938 361.769531 L 159.175781 360.367188 L 156.945313 357.402344 L 154.710938 348.863281 L 152.570313 345.453125 L 150.84375 343.570313 L 148.726563 342.949219 L 148.140625 343.011719 L 137.695313 346.714844 L 132.9375 342.195313 L 132.445313 341 L 138.082031 337.242188 L 137.164063 333.917969 L 137.859375 332.644531 L 142.375 331.269531 L 142.769531 328.890625 L 146.058594 327.851563 L 143.421875 321.917969 L 140.175781 319.800781 L 141.261719 312.527344 L 142.921875 310.835938 L 145.882813 311.265625 L 147.21875 307.75 L 146.210938 302.355469 Z M 142.839844 301.632813 "/>
<path style="fill:none;stroke-width:0.426791;stroke-linecap:butt;stroke-linejoin:round;stroke:rgb(100%,100%,100%);stroke-opacity:1;stroke-miterlimit:10;" d="M 112.484375 371.714844 L 103.25 367.648438 L 97.910156 369.273438 L 86.203125 374.601563 L 77.898438 373.160156 L 77.390625 378.253906 L 80.617188 378.304688 L 84.820313 381.390625 L 85.941406 386.867188 L 91.335938 393.894531 L 91.703125 396.746094 L 94.988281 397.730469 L 96.628906 394.394531 L 103.09375 395.703125 L 104.179688 399.691406 L 106.113281 397.816406 L 109.6875 400.179688 L 113.695313 399.992188 L 116.585938 397.476563 L 114.691406 395.726563 L 113.988281 392.488281 L 117.59375 387.808594 L 117.890625 384.605469 L 117.648438 384.335938 L 113.605469 382.078125 L 112.042969 380.625 L 113.441406 378.1875 L 112.980469 373.316406 Z M 112.484375 371.714844 "/>
<path style="fill:none;stroke-width:0.426791;stroke-linecap:butt;stroke-linejoin:round;stroke:rgb(100%,100%,100%);stroke-opacity:1;stroke-miterlimit:10;" d="M 333.824219 242.554688 L 330.628906 240.570313 L 320.523438 243.683594 L 305.601563 249.597656 L 303.996094 254.585938 L 305.390625 262 L 304.019531 263.132813 L 304.503906 265.558594 L 305.945313 274.570313 L 308.910156 277.015625 L 316.242188 277.933594 L 319.417969 282.699219 L 321.972656 283.949219 L 323.363281 287.511719 L 307.632813 294.085938 L 308.585938 296.5 L 307.148438 298.792969 L 310.296875 302.933594 L 300 310.472656 L 298.226563 307.402344 L 295.628906 308.253906 L 293.246094 311.652344 L 295.710938 314.171875 L 294.175781 317.230469 L 294.660156 318.648438 L 298.652344 323.964844 L 301.765625 325.304688 L 304.84375 325.53125 L 310.347656 334.171875 L 311.082031 329.835938 L 313.835938 325.078125 L 320.660156 319.75 L 325.328125 319.808594 L 329.957031 316.875 L 334.917969 319.921875 L 338.652344 313.652344 L 344.089844 313.542969 L 346.84375 308.699219 L 348.96875 308.839844 L 352.101563 305.53125 L 354.679688 307.214844 L 356.585938 305.613281 L 358.125 301.121094 L 362.46875 299.578125 L 370.328125 299.503906 L 375.382813 294.507813 L 390.789063 288.980469 L 391.269531 287.417969 L 386.628906 283.179688 L 388.519531 279.335938 L 392.324219 281.1875 L 395.300781 280.035156 L 399.132813 283.511719 L 398.558594 287.492188 L 401.050781 287.582031 L 400.292969 291.625 L 406.15625 293.761719 L 408.300781 290.828125 L 411.261719 285.898438 L 415.042969 274.941406 L 416.523438 265.941406 L 414.203125 260.039063 L 413.34375 253.894531 L 405.070313 249.664063 L 404.640625 246.449219 L 401.90625 248.265625 L 398.136719 246.949219 L 393.601563 248.925781 L 388.929688 250.332031 L 382.472656 248.992188 L 380.304688 250.667969 L 376.148438 258.757813 L 369.636719 259.238281 L 363.996094 259.414063 L 358.359375 259.128906 L 352.921875 255.121094 L 347.304688 258.230469 L 345.171875 257.496094 L 344.5 248.917969 L 342.441406 245.074219 L 338.945313 242.335938 Z M 333.824219 242.554688 "/>
<path style="fill:none;stroke-width:0.426791;stroke-linecap:butt;stroke-linejoin:round;stroke:rgb(100%,100%,100%);stroke-opacity:1;stroke-miterlimit:10;" d="M 292.695313 164.015625 L 290.9375 161.082031 L 282.078125 155.710938 L 278.632813 158.386719 L 278.445313 161.632813 L 270.402344 165.550781 L 260.359375 163.621094 L 256.195313 166.855469 L 252.484375 167.175781 L 249.265625 170.691406 L 255.195313 181.246094 L 257.285156 181.800781 L 256.832031 185.699219 L 259.027344 189.355469 L 256.121094 190.910156 L 261.171875 197.367188 L 259.15625 199.472656 L 261.3125 205.75 L 259.613281 208.148438 L 260.683594 210.628906 L 257.296875 214.035156 L 257.292969 216.816406 L 250.917969 217.355469 L 245.9375 217.539063 L 241.515625 220.097656 L 244.5625 226.550781 L 242.425781 230.386719 L 242.652344 233.746094 L 247 242.679688 L 255.398438 244.289063 L 254.621094 247.128906 L 257.828125 256.113281 L 270.945313 257.5 L 273.691406 259.011719 L 274.5625 261.398438 L 277.230469 264.339844 L 273.765625 267.40625 L 273.625 269.332031 L 276.90625 271.128906 L 277.648438 276.171875 L 285.957031 277.292969 L 289.03125 279.707031 L 293.363281 279.632813 L 298.636719 284.679688 L 304.214844 285.335938 L 306.589844 286.3125 L 308.855469 281.578125 L 308.910156 277.015625 L 305.945313 274.570313 L 304.503906 265.558594 L 304.019531 263.132813 L 305.390625 262 L 303.996094 254.585938 L 305.601563 249.597656 L 320.523438 243.683594 L 330.628906 240.570313 L 333.824219 242.554688 L 338.945313 242.335938 L 343.382813 238.691406 L 342.851563 229.113281 L 327.9375 221.644531 L 323.804688 219.921875 L 319.476563 221.261719 L 312.535156 217.535156 L 308.644531 213.859375 L 306.785156 209.859375 L 310.226563 192.015625 L 307.964844 188.707031 L 304.53125 188.757813 L 304.703125 182.054688 L 306.976563 179.9375 L 306.203125 172.585938 L 307.566406 170.941406 L 307.648438 169.703125 L 306.410156 166.585938 L 303.296875 166.472656 L 302.777344 164.804688 Z M 292.695313 164.015625 "/>
<path style="fill:none;stroke-width:0.426791;stroke-linecap:butt;stroke-linejoin:round;stroke:rgb(100%,100%,100%);stroke-opacity:1;stroke-miterlimit:10;" d="M 198.871094 358.894531 L 193.136719 360.085938 L 194.121094 362.902344 L 196.234375 362.960938 L 196.5 366.148438 L 192 367.304688 L 189.191406 371.347656 L 184.453125 371.515625 L 185.207031 375.195313 L 183.679688 374.738281 L 177.753906 378.183594 L 175.855469 381.625 L 173.339844 382.316406 L 174.105469 378.179688 L 176.480469 377.3125 L 176.492188 376.121094 L 169.621094 374.449219 L 166.917969 369.003906 L 164.945313 369.6875 L 165.238281 373.289063 L 164.039063 375.117188 L 157.820313 371.148438 L 157.828125 371.722656 L 157.84375 373.742188 L 159.777344 379.875 L 160.914063 380.414063 L 160.75 381.882813 L 159.714844 386.289063 L 160.355469 389.453125 L 159.5625 389.890625 L 157.453125 391.960938 L 154.59375 402.546875 L 152.140625 408.179688 L 151.511719 408.742188 L 150.390625 409.636719 L 147.898438 412.128906 L 144.796875 419.46875 L 139.707031 425.109375 L 139.085938 425.90625 L 133.953125 432.574219 L 130.964844 448.996094 L 128.792969 453.894531 L 124.773438 462.375 L 124.746094 462.734375 L 124.621094 467.433594 L 126.199219 471.460938 L 123.21875 482.878906 L 123.523438 485.949219 L 122.523438 490.03125 L 125.207031 495.539063 L 126.96875 497.335938 L 130.089844 498.691406 L 137.144531 495.761719 L 138.265625 497.722656 L 142.800781 497.8125 L 149.914063 493.859375 L 157.976563 496.933594 L 161.582031 493.308594 L 163.3125 494.945313 L 164.59375 494.5625 L 165.015625 490.601563 L 160.964844 491.855469 L 157.910156 490.089844 L 157.664063 488.652344 L 161.25 483.914063 L 165.308594 482.363281 L 168.890625 486.347656 L 168.945313 488.03125 L 167.246094 489.550781 L 167.523438 489.613281 L 172.425781 490.191406 L 171.871094 487.886719 L 173.15625 487.421875 L 175.523438 491.496094 L 181.824219 489.671875 L 187.550781 491.421875 L 195.269531 493.417969 L 199.8125 497.9375 L 202.285156 498.535156 L 207.503906 494.257813 L 213.714844 490.441406 L 217.789063 491.546875 L 221.007813 490 L 222.578125 492.460938 L 224.636719 489.308594 L 223.148438 483.324219 L 224.714844 481.175781 L 223.71875 478.996094 L 223.863281 473.871094 L 223.148438 472.742188 L 223.628906 471.550781 L 224.050781 471.429688 L 224.890625 463.183594 L 223.285156 459.714844 L 221.816406 452.503906 L 219.457031 448.101563 L 220.832031 441.421875 L 224.792969 441.566406 L 228.582031 438.09375 L 230.441406 437.746094 L 231.714844 435.6875 L 230.210938 426.769531 L 233.757813 428.316406 L 238.621094 426.476563 L 236.132813 423.492188 L 237.308594 413.515625 L 235.601563 408.957031 L 229.601563 403.839844 L 228.578125 401.511719 L 229.085938 398.523438 L 224.839844 394.070313 L 225.269531 389.914063 L 223.933594 383.53125 L 224.800781 381.828125 L 224.183594 378.023438 L 222.828125 373.632813 L 220.289063 376.925781 L 217.789063 377.457031 L 216.503906 376.332031 L 215.960938 372.339844 L 213.273438 372.464844 L 214.101563 369.191406 L 212.273438 363.3125 L 205.390625 363.761719 L 205.808594 358.160156 Z M 198.871094 358.894531 "/>
<path style="fill:none;stroke-width:0.426791;stroke-linecap:butt;stroke-linejoin:round;stroke:rgb(100%,100%,100%);stroke-opacity:1;stroke-miterlimit:10;" d="M 235.195313 319.953125 L 232.410156 314.664063 L 227.507813 310.949219 L 223.652344 310.488281 L 221.171875 312.921875 L 217.789063 318.710938 L 217.035156 318.96875 L 214.367188 320.050781 L 210.726563 318.863281 L 209.101563 322.925781 L 209.09375 326.15625 L 204.804688 330.859375 L 200.371094 330.5625 L 200.320313 338.515625 L 196.269531 339.675781 L 194.484375 337.097656 L 189.207031 336.058594 L 186.574219 337.960938 L 181.699219 338.195313 L 180.050781 340.960938 L 179.566406 342.195313 L 181.554688 343.316406 L 181.050781 345.691406 L 182.378906 353.492188 L 181.832031 354.730469 L 185.101563 358.359375 L 185.925781 361.472656 L 183.441406 368.84375 L 184.453125 371.515625 L 189.191406 371.347656 L 192 367.304688 L 196.5 366.148438 L 196.234375 362.960938 L 194.121094 362.902344 L 193.136719 360.085938 L 198.871094 358.894531 L 205.808594 358.160156 L 205.390625 363.761719 L 212.273438 363.3125 L 214.101563 369.191406 L 213.273438 372.464844 L 215.960938 372.339844 L 216.503906 376.332031 L 217.789063 377.457031 L 220.289063 376.925781 L 222.828125 373.632813 L 224.183594 378.023438 L 224.800781 381.828125 L 223.933594 383.53125 L 225.269531 389.914063 L 224.839844 394.070313 L 229.085938 398.523438 L 228.578125 401.511719 L 229.601563 403.839844 L 235.601563 408.957031 L 237.308594 413.515625 L 236.132813 423.492188 L 238.621094 426.476563 L 233.757813 428.316406 L 230.210938 426.769531 L 231.714844 435.6875 L 230.441406 437.746094 L 228.582031 438.09375 L 224.792969 441.566406 L 220.832031 441.421875 L 219.457031 448.101563 L 221.816406 452.503906 L 223.285156 459.714844 L 224.890625 463.183594 L 224.050781 471.429688 L 223.628906 471.550781 L 223.148438 472.742188 L 223.863281 473.871094 L 223.71875 478.996094 L 224.714844 481.175781 L 223.148438 483.324219 L 224.636719 489.308594 L 222.578125 492.460938 L 221.007813 490 L 217.789063 491.546875 L 213.714844 490.441406 L 207.503906 494.257813 L 202.285156 498.535156 L 207.675781 499.191406 L 211.476563 495.984375 L 214.058594 498.6875 L 218.292969 498.265625 L 219.535156 502.207031 L 222.839844 504.414063 L 223.546875 509.472656 L 227.28125 508.367188 L 228.0625 510.222656 L 226.53125 515.496094 L 231.6875 513.515625 L 234.550781 510.222656 L 237.878906 505.078125 L 236.78125 500.625 L 237.335938 497.667969 L 241.199219 498.828125 L 244.480469 497.113281 L 250.363281 499.914063 L 254.230469 498.851563 L 254.15625 502.144531 L 257.03125 504.308594 L 258.339844 507.628906 L 259.328125 507.617188 L 266.839844 505.484375 L 269.054688 507.128906 L 271.707031 504.628906 L 275.175781 504.589844 L 274.164063 502.894531 L 274.738281 501.441406 L 280.542969 500.207031 L 283.449219 495.378906 L 291.121094 495.808594 L 300.191406 493.738281 L 305.429688 493.863281 L 304.554688 488.980469 L 306.753906 487.363281 L 307.730469 487.164063 L 308.148438 489.613281 L 311.042969 488.851563 L 314.605469 489.347656 L 317.566406 493.0625 L 320.316406 492.894531 L 321.84375 490.472656 L 325.042969 489.777344 L 328.738281 492.996094 L 329.269531 497.464844 L 333.78125 501.476563 L 337.277344 502.917969 L 338.75 499.871094 L 340.226563 490.621094 L 338.046875 487.796875 L 333.742188 487.296875 L 336.765625 478.972656 L 334.554688 473.941406 L 332.085938 472.28125 L 331.476563 470.160156 L 327.226563 462.910156 L 332.085938 457.652344 L 334.78125 457.050781 L 338.394531 453.644531 L 343.875 451.578125 L 347.792969 451.078125 L 352.664063 446.769531 L 354.550781 438.421875 L 354.105469 435.699219 L 357.035156 433.074219 L 365.398438 437.9375 L 369.011719 431.703125 L 368.101563 425.421875 L 369.800781 421.800781 L 365.746094 415.238281 L 363.277344 414.5625 L 358.53125 409.558594 L 356.246094 410.632813 L 353.253906 408.796875 L 351.671875 403.503906 L 344.734375 399.363281 L 343.636719 396.71875 L 337.367188 388.425781 L 334.28125 386.082031 L 328.796875 385.71875 L 322.617188 377.835938 L 322.703125 375.1875 L 321.050781 373.71875 L 318.003906 365.121094 L 313.527344 360.226563 L 315.953125 358.351563 L 319.378906 351.074219 L 317.070313 349.125 L 316.65625 346.683594 L 308.023438 341.519531 L 308.039063 339.972656 L 305.898438 338.0625 L 305.816406 334.460938 L 304.105469 331.433594 L 302.175781 329.832031 L 302.796875 327.359375 L 301.765625 325.304688 L 298.652344 323.964844 L 294.660156 318.648438 L 291.4375 320.351563 L 282.292969 320.265625 L 279.242188 321.191406 L 277.527344 318.21875 L 275.546875 317.632813 L 274.382813 312.855469 L 269.089844 315.234375 L 269.515625 321.984375 L 268.488281 327.046875 L 266.117188 328.226563 L 263.40625 322.796875 L 260.144531 323.214844 L 256.558594 321.035156 L 248.519531 322.730469 L 248.371094 325.171875 L 251.355469 328.636719 L 248.085938 330.796875 L 243.425781 330.925781 L 242.667969 324.613281 L 237.183594 320.074219 Z M 235.195313 319.953125 "/>
<path style="fill:none;stroke-width:0.426791;stroke-linecap:butt;stroke-linejoin:round;stroke:rgb(100%,100%,100%);stroke-opacity:1;stroke-miterlimit:10;" d="M 350.019531 181.105469 L 348.207031 179.5625 L 343.375 182.980469 L 341.9375 187.464844 L 342.960938 189.039063 L 341.257813 193.363281 L 343.441406 195.75 L 345.902344 194.402344 L 349.15625 195.441406 L 353.421875 196.875 L 354.476563 194.496094 L 362.644531 198.476563 L 364.328125 196.773438 L 365.726563 192.980469 L 363.046875 190.761719 L 360.851563 186.390625 L 356.996094 183.144531 L 356.574219 179.757813 L 352.542969 179.90625 Z M 350.019531 181.105469 "/>
<path style="fill:none;stroke-width:0.426791;stroke-linecap:butt;stroke-linejoin:round;stroke:rgb(100%,100%,100%);stroke-opacity:1;stroke-miterlimit:10;" d="M 390.621094 138.457031 L 384.824219 141.664063 L 381.769531 141.136719 L 382.601563 138.457031 L 384.78125 135.167969 L 385.21875 131.957031 L 373.371094 131.277344 L 368.226563 124.273438 L 368.0625 127.789063 L 364.734375 128.058594 L 358.917969 133.246094 L 356.519531 138.457031 L 352.640625 141.707031 L 348.394531 141.144531 L 346.394531 143.449219 L 342.386719 142.648438 L 336.347656 147.65625 L 323.425781 142.785156 L 315.734375 141.929688 L 310.796875 138.109375 L 310.539063 137.902344 L 300.128906 135.804688 L 298.40625 138.457031 L 290.859375 143.382813 L 282.515625 143.753906 L 278.664063 149.78125 L 269.082031 150.339844 L 271.839844 154.089844 L 276.355469 153.414063 L 282.078125 155.710938 L 290.9375 161.082031 L 292.695313 164.015625 L 302.777344 164.804688 L 303.296875 166.472656 L 306.410156 166.585938 L 307.648438 169.703125 L 307.566406 170.941406 L 306.203125 172.585938 L 306.976563 179.9375 L 304.703125 182.054688 L 304.53125 188.757813 L 307.964844 188.707031 L 310.226563 192.015625 L 306.785156 209.859375 L 308.644531 213.859375 L 312.535156 217.535156 L 319.476563 221.261719 L 323.804688 219.921875 L 327.9375 221.644531 L 342.851563 229.113281 L 343.382813 238.691406 L 338.945313 242.335938 L 342.441406 245.074219 L 344.5 248.917969 L 345.171875 257.496094 L 347.304688 258.230469 L 352.921875 255.121094 L 358.359375 259.128906 L 363.996094 259.414063 L 369.636719 259.238281 L 376.148438 258.757813 L 380.304688 250.667969 L 382.472656 248.992188 L 388.929688 250.332031 L 393.601563 248.925781 L 398.136719 246.949219 L 401.90625 248.265625 L 404.640625 246.449219 L 405.789063 244.441406 L 405.507813 241.363281 L 399.558594 231.210938 L 403.511719 225.476563 L 404.125 220.277344 L 405.632813 215.980469 L 402.902344 212.621094 L 403.605469 205.328125 L 399.59375 203.375 L 396.992188 195.703125 L 400.382813 189.902344 L 400.542969 184.394531 L 398.191406 181.382813 L 393.160156 177.925781 L 384.808594 169.703125 L 381.53125 168.347656 L 382.210938 164.46875 L 381.703125 160.363281 L 389.980469 153.742188 L 390.796875 146.078125 L 393.234375 141.824219 L 392.457031 138.457031 L 392.207031 137.382813 Z M 341.9375 187.464844 L 343.375 182.980469 L 348.207031 179.5625 L 350.019531 181.105469 L 352.542969 179.90625 L 356.574219 179.757813 L 356.996094 183.144531 L 360.851563 186.390625 L 363.046875 190.761719 L 365.726563 192.980469 L 364.328125 196.773438 L 362.644531 198.476563 L 354.476563 194.496094 L 353.421875 196.875 L 349.15625 195.441406 L 345.902344 194.402344 L 343.441406 195.75 L 341.257813 193.363281 L 342.960938 189.039063 Z M 341.9375 187.464844 "/>
<path style="fill:none;stroke-width:0.426791;stroke-linecap:butt;stroke-linejoin:round;stroke:rgb(100%,100%,100%);stroke-opacity:1;stroke-miterlimit:10;" d="M 179.195313 155.152344 L 178.839844 150.980469 L 179.800781 150.085938 L 160.28125 143.78125 L 165.375 147.769531 L 166.917969 151.160156 L 169.128906 155.167969 L 177.125 157.265625 Z M 179.195313 155.152344 "/>
<path style="fill:none;stroke-width:0.426791;stroke-linecap:butt;stroke-linejoin:round;stroke:rgb(100%,100%,100%);stroke-opacity:1;stroke-miterlimit:10;" d="M 165.132813 127.363281 L 166.546875 125.421875 L 166.203125 120.628906 L 161.652344 120.125 L 160.75 121.195313 L 163.003906 125.183594 L 160.566406 128.472656 Z M 165.132813 127.363281 "/>
<path style="fill:none;stroke-width:0.426791;stroke-linecap:butt;stroke-linejoin:round;stroke:rgb(100%,100%,100%);stroke-opacity:1;stroke-miterlimit:10;" d="M 226.050781 123.5625 L 226.972656 119.871094 L 225.511719 113.535156 L 222.347656 114.457031 L 217.414063 117.210938 L 214.175781 120.046875 L 210.269531 120.039063 L 208.992188 123.160156 L 210.40625 123.832031 L 210.507813 126.421875 L 214.175781 130.519531 L 218.933594 131.578125 L 221.863281 129.539063 L 227.554688 133.195313 L 231.601563 130.921875 L 228.8125 126.980469 Z M 226.050781 123.5625 "/>
<path style="fill:none;stroke-width:0.426791;stroke-linecap:butt;stroke-linejoin:round;stroke:rgb(100%,100%,100%);stroke-opacity:1;stroke-miterlimit:10;" d="M 160.929688 98.382813 L 159.433594 101.765625 L 160.949219 102.191406 L 162.015625 100.574219 Z M 160.929688 98.382813 "/>
<path style="fill:none;stroke-width:0.426791;stroke-linecap:butt;stroke-linejoin:round;stroke:rgb(100%,100%,100%);stroke-opacity:1;stroke-miterlimit:10;" d="M 204.484375 243.390625 L 197.65625 242.167969 L 194.1875 244.542969 L 192.160156 250.421875 L 186.503906 255.128906 L 184.308594 254.535156 L 183.121094 251.792969 L 179.273438 251.128906 L 176.628906 252.839844 L 178.078125 256.121094 L 177.730469 258.023438 L 168.648438 259.519531 L 164.113281 263.898438 L 163.480469 265.394531 L 164.386719 266.683594 L 169.449219 266.253906 L 170.746094 270.964844 L 167.609375 276.34375 L 162.777344 276.394531 L 161.453125 277.742188 L 161.941406 281.75 L 159.988281 284.683594 L 155.199219 291.363281 L 151.433594 290.792969 L 147.332031 294.902344 L 147.433594 299.574219 L 146.210938 302.355469 L 147.21875 307.75 L 145.882813 311.265625 L 142.921875 310.835938 L 141.261719 312.527344 L 140.175781 319.800781 L 143.421875 321.917969 L 146.058594 327.851563 L 142.769531 328.890625 L 142.375 331.269531 L 137.859375 332.644531 L 137.164063 333.917969 L 138.082031 337.242188 L 132.445313 341 L 132.9375 342.195313 L 137.695313 346.714844 L 148.140625 343.011719 L 148.726563 342.949219 L 150.84375 343.570313 L 152.570313 345.453125 L 154.710938 348.863281 L 156.945313 357.402344 L 159.175781 360.367188 L 158.835938 361.769531 L 158.757813 361.949219 L 155.507813 364.773438 L 157.519531 370.417969 L 157.820313 371.148438 L 164.039063 375.117188 L 165.238281 373.289063 L 164.945313 369.6875 L 166.917969 369.003906 L 169.621094 374.449219 L 176.492188 376.121094 L 176.480469 377.3125 L 174.105469 378.179688 L 173.339844 382.316406 L 175.855469 381.625 L 177.753906 378.183594 L 183.679688 374.738281 L 185.207031 375.195313 L 184.453125 371.515625 L 183.441406 368.84375 L 185.925781 361.472656 L 185.101563 358.359375 L 181.832031 354.730469 L 182.378906 353.492188 L 181.050781 345.691406 L 181.554688 343.316406 L 179.566406 342.195313 L 180.050781 340.960938 L 181.699219 338.195313 L 186.574219 337.960938 L 189.207031 336.058594 L 194.484375 337.097656 L 196.269531 339.675781 L 200.320313 338.515625 L 200.371094 330.5625 L 204.804688 330.859375 L 209.09375 326.15625 L 209.101563 322.925781 L 210.726563 318.863281 L 214.367188 320.050781 L 217.035156 318.96875 L 217.789063 318.710938 L 221.171875 312.921875 L 221.355469 307.152344 L 222.585938 305.363281 L 220.214844 303.449219 L 217.347656 305.441406 L 215.636719 304.597656 L 216.664063 297.265625 L 220.222656 290.488281 L 219.15625 287.535156 L 220.394531 283.191406 L 226.6875 282.84375 L 227.464844 282 L 225.648438 279.03125 L 225.289063 274.253906 L 227.769531 273.761719 L 227.648438 270.855469 L 217.789063 263.761719 L 216.75 259.332031 L 215.566406 256.96875 L 211.714844 257.75 L 208.765625 260.183594 L 210.371094 262.722656 L 209.078125 264.328125 L 202.648438 261.535156 L 202.226563 260.824219 L 205.167969 256.484375 L 204.1875 250.742188 L 205.769531 248.273438 L 205.015625 247.296875 L 205.0625 246.425781 L 205.582031 246.441406 L 206.730469 247.28125 L 207.238281 246.433594 Z M 204.484375 243.390625 "/>
</g>
</svg>
